<svg xmlns="http://www.w3.org/2000/svg" xmlns:xlink="http://www.w3.org/1999/xlink" width="600" height="400" viewBox="0 0 2400 1600">
<defs>
  <clipPath id="clip040">
    <rect x="0" y="0" width="2400" height="1600"></rect>
  </clipPath>
</defs>
<path clip-path="url(#clip040)" d="M0 1600 L2400 1600 L2400 0 L0 0  Z" fill="#ffffff" fill-rule="evenodd" fill-opacity="1"></path>
<defs>
  <clipPath id="clip041">
    <rect x="480" y="0" width="1681" height="1600"></rect>
  </clipPath>
</defs>
<path clip-path="url(#clip040)" d="M242.135 1423.18 L2352.76 1423.18 L2352.76 123.472 L242.135 123.472  Z" fill="#ffffff" fill-rule="evenodd" fill-opacity="1"></path>
<defs>
  <clipPath id="clip042">
    <rect x="242" y="123" width="2112" height="1301"></rect>
  </clipPath>
</defs>
<polyline clip-path="url(#clip042)" style="stroke:#000000; stroke-linecap:round; stroke-linejoin:round; stroke-width:2; stroke-opacity:0.1; fill:none" points="561.585,1423.18 561.585,123.472 "></polyline>
<polyline clip-path="url(#clip042)" style="stroke:#000000; stroke-linecap:round; stroke-linejoin:round; stroke-width:2; stroke-opacity:0.1; fill:none" points="994.444,1423.18 994.444,123.472 "></polyline>
<polyline clip-path="url(#clip042)" style="stroke:#000000; stroke-linecap:round; stroke-linejoin:round; stroke-width:2; stroke-opacity:0.1; fill:none" points="1427.3,1423.18 1427.3,123.472 "></polyline>
<polyline clip-path="url(#clip042)" style="stroke:#000000; stroke-linecap:round; stroke-linejoin:round; stroke-width:2; stroke-opacity:0.1; fill:none" points="1860.16,1423.18 1860.16,123.472 "></polyline>
<polyline clip-path="url(#clip042)" style="stroke:#000000; stroke-linecap:round; stroke-linejoin:round; stroke-width:2; stroke-opacity:0.1; fill:none" points="2293.02,1423.18 2293.02,123.472 "></polyline>
<polyline clip-path="url(#clip042)" style="stroke:#000000; stroke-linecap:round; stroke-linejoin:round; stroke-width:2; stroke-opacity:0.1; fill:none" points="242.135,1353.08 2352.76,1353.08 "></polyline>
<polyline clip-path="url(#clip042)" style="stroke:#000000; stroke-linecap:round; stroke-linejoin:round; stroke-width:2; stroke-opacity:0.1; fill:none" points="242.135,1036.49 2352.76,1036.49 "></polyline>
<polyline clip-path="url(#clip042)" style="stroke:#000000; stroke-linecap:round; stroke-linejoin:round; stroke-width:2; stroke-opacity:0.1; fill:none" points="242.135,719.911 2352.76,719.911 "></polyline>
<polyline clip-path="url(#clip042)" style="stroke:#000000; stroke-linecap:round; stroke-linejoin:round; stroke-width:2; stroke-opacity:0.1; fill:none" points="242.135,403.327 2352.76,403.327 "></polyline>
<polyline clip-path="url(#clip040)" style="stroke:#000000; stroke-linecap:round; stroke-linejoin:round; stroke-width:4; stroke-opacity:1; fill:none" points="242.135,1423.18 2352.76,1423.18 "></polyline>
<polyline clip-path="url(#clip040)" style="stroke:#000000; stroke-linecap:round; stroke-linejoin:round; stroke-width:4; stroke-opacity:1; fill:none" points="561.585,1423.18 561.585,1404.28 "></polyline>
<polyline clip-path="url(#clip040)" style="stroke:#000000; stroke-linecap:round; stroke-linejoin:round; stroke-width:4; stroke-opacity:1; fill:none" points="994.444,1423.18 994.444,1404.28 "></polyline>
<polyline clip-path="url(#clip040)" style="stroke:#000000; stroke-linecap:round; stroke-linejoin:round; stroke-width:4; stroke-opacity:1; fill:none" points="1427.3,1423.18 1427.3,1404.28 "></polyline>
<polyline clip-path="url(#clip040)" style="stroke:#000000; stroke-linecap:round; stroke-linejoin:round; stroke-width:4; stroke-opacity:1; fill:none" points="1860.16,1423.18 1860.16,1404.28 "></polyline>
<polyline clip-path="url(#clip040)" style="stroke:#000000; stroke-linecap:round; stroke-linejoin:round; stroke-width:4; stroke-opacity:1; fill:none" points="2293.02,1423.18 2293.02,1404.28 "></polyline>
<path clip-path="url(#clip040)" d="M551.863 1451.02 L570.219 1451.02 L570.219 1454.96 L556.145 1454.96 L556.145 1463.43 Q557.163 1463.08 558.182 1462.92 Q559.2 1462.73 560.219 1462.73 Q566.006 1462.73 569.386 1465.9 Q572.765 1469.08 572.765 1474.49 Q572.765 1480.07 569.293 1483.17 Q565.821 1486.25 559.501 1486.25 Q557.325 1486.25 555.057 1485.88 Q552.812 1485.51 550.404 1484.77 L550.404 1480.07 Q552.488 1481.2 554.71 1481.76 Q556.932 1482.32 559.409 1482.32 Q563.413 1482.32 565.751 1480.21 Q568.089 1478.1 568.089 1474.49 Q568.089 1470.88 565.751 1468.77 Q563.413 1466.67 559.409 1466.67 Q557.534 1466.67 555.659 1467.08 Q553.807 1467.5 551.863 1468.38 L551.863 1451.02 Z" fill="#000000" fill-rule="nonzero" fill-opacity="1"></path><path clip-path="url(#clip040)" d="M969.132 1481.64 L976.77 1481.64 L976.77 1455.28 L968.46 1456.95 L968.46 1452.69 L976.724 1451.02 L981.4 1451.02 L981.4 1481.64 L989.039 1481.64 L989.039 1485.58 L969.132 1485.58 L969.132 1481.64 Z" fill="#000000" fill-rule="nonzero" fill-opacity="1"></path><path clip-path="url(#clip040)" d="M1008.48 1454.1 Q1004.87 1454.1 1003.04 1457.66 Q1001.24 1461.2 1001.24 1468.33 Q1001.24 1475.44 1003.04 1479.01 Q1004.87 1482.55 1008.48 1482.55 Q1012.12 1482.55 1013.92 1479.01 Q1015.75 1475.44 1015.75 1468.33 Q1015.75 1461.2 1013.92 1457.66 Q1012.12 1454.1 1008.48 1454.1 M1008.48 1450.39 Q1014.29 1450.39 1017.35 1455 Q1020.43 1459.58 1020.43 1468.33 Q1020.43 1477.06 1017.35 1481.67 Q1014.29 1486.25 1008.48 1486.25 Q1002.67 1486.25 999.594 1481.67 Q996.539 1477.06 996.539 1468.33 Q996.539 1459.58 999.594 1455 Q1002.67 1450.39 1008.48 1450.39 Z" fill="#000000" fill-rule="nonzero" fill-opacity="1"></path><path clip-path="url(#clip040)" d="M1402.49 1481.64 L1410.13 1481.64 L1410.13 1455.28 L1401.82 1456.95 L1401.82 1452.69 L1410.08 1451.02 L1414.76 1451.02 L1414.76 1481.64 L1422.4 1481.64 L1422.4 1485.58 L1402.49 1485.58 L1402.49 1481.64 Z" fill="#000000" fill-rule="nonzero" fill-opacity="1"></path><path clip-path="url(#clip040)" d="M1431.89 1451.02 L1450.24 1451.02 L1450.24 1454.96 L1436.17 1454.96 L1436.17 1463.43 Q1437.19 1463.08 1438.21 1462.92 Q1439.22 1462.73 1440.24 1462.73 Q1446.03 1462.73 1449.41 1465.9 Q1452.79 1469.08 1452.79 1474.49 Q1452.79 1480.07 1449.32 1483.17 Q1445.84 1486.25 1439.53 1486.25 Q1437.35 1486.25 1435.08 1485.88 Q1432.84 1485.51 1430.43 1484.77 L1430.43 1480.07 Q1432.51 1481.2 1434.73 1481.76 Q1436.96 1482.32 1439.43 1482.32 Q1443.44 1482.32 1445.78 1480.21 Q1448.11 1478.1 1448.11 1474.49 Q1448.11 1470.88 1445.78 1468.77 Q1443.44 1466.67 1439.43 1466.67 Q1437.56 1466.67 1435.68 1467.08 Q1433.83 1467.5 1431.89 1468.38 L1431.89 1451.02 Z" fill="#000000" fill-rule="nonzero" fill-opacity="1"></path><path clip-path="url(#clip040)" d="M1838.94 1481.64 L1855.25 1481.64 L1855.25 1485.58 L1833.31 1485.58 L1833.31 1481.64 Q1835.97 1478.89 1840.56 1474.26 Q1845.16 1469.61 1846.34 1468.27 Q1848.59 1465.74 1849.47 1464.01 Q1850.37 1462.25 1850.37 1460.56 Q1850.37 1457.8 1848.43 1456.07 Q1846.5 1454.33 1843.4 1454.33 Q1841.2 1454.33 1838.75 1455.09 Q1836.32 1455.86 1833.54 1457.41 L1833.54 1452.69 Q1836.37 1451.55 1838.82 1450.97 Q1841.27 1450.39 1843.31 1450.39 Q1848.68 1450.39 1851.88 1453.08 Q1855.07 1455.77 1855.07 1460.26 Q1855.07 1462.39 1854.26 1464.31 Q1853.47 1466.2 1851.37 1468.8 Q1850.79 1469.47 1847.69 1472.69 Q1844.58 1475.88 1838.94 1481.64 Z" fill="#000000" fill-rule="nonzero" fill-opacity="1"></path><path clip-path="url(#clip040)" d="M1875.07 1454.1 Q1871.46 1454.1 1869.63 1457.66 Q1867.82 1461.2 1867.82 1468.33 Q1867.82 1475.44 1869.63 1479.01 Q1871.46 1482.55 1875.07 1482.55 Q1878.7 1482.55 1880.51 1479.01 Q1882.34 1475.44 1882.34 1468.33 Q1882.34 1461.2 1880.51 1457.66 Q1878.7 1454.1 1875.07 1454.1 M1875.07 1450.39 Q1880.88 1450.39 1883.94 1455 Q1887.01 1459.58 1887.01 1468.33 Q1887.01 1477.06 1883.94 1481.67 Q1880.88 1486.25 1875.07 1486.25 Q1869.26 1486.25 1866.18 1481.67 Q1863.13 1477.06 1863.13 1468.33 Q1863.13 1459.58 1866.18 1455 Q1869.26 1450.39 1875.07 1450.39 Z" fill="#000000" fill-rule="nonzero" fill-opacity="1"></path><path clip-path="url(#clip040)" d="M2272.29 1481.64 L2288.61 1481.64 L2288.61 1485.58 L2266.67 1485.58 L2266.67 1481.64 Q2269.33 1478.89 2273.91 1474.26 Q2278.52 1469.61 2279.7 1468.27 Q2281.95 1465.74 2282.82 1464.01 Q2283.73 1462.25 2283.73 1460.56 Q2283.73 1457.8 2281.78 1456.07 Q2279.86 1454.33 2276.76 1454.33 Q2274.56 1454.33 2272.11 1455.09 Q2269.68 1455.86 2266.9 1457.41 L2266.9 1452.69 Q2269.72 1451.55 2272.18 1450.97 Q2274.63 1450.39 2276.67 1450.39 Q2282.04 1450.39 2285.23 1453.08 Q2288.43 1455.77 2288.43 1460.26 Q2288.43 1462.39 2287.62 1464.31 Q2286.83 1466.2 2284.72 1468.8 Q2284.14 1469.47 2281.04 1472.69 Q2277.94 1475.88 2272.29 1481.64 Z" fill="#000000" fill-rule="nonzero" fill-opacity="1"></path><path clip-path="url(#clip040)" d="M2298.47 1451.02 L2316.83 1451.02 L2316.83 1454.96 L2302.76 1454.96 L2302.76 1463.43 Q2303.77 1463.08 2304.79 1462.92 Q2305.81 1462.73 2306.83 1462.73 Q2312.62 1462.73 2316 1465.9 Q2319.38 1469.08 2319.38 1474.49 Q2319.38 1480.07 2315.9 1483.17 Q2312.43 1486.25 2306.11 1486.25 Q2303.94 1486.25 2301.67 1485.88 Q2299.42 1485.51 2297.01 1484.77 L2297.01 1480.07 Q2299.1 1481.2 2301.32 1481.76 Q2303.54 1482.32 2306.02 1482.32 Q2310.02 1482.32 2312.36 1480.21 Q2314.7 1478.1 2314.7 1474.49 Q2314.7 1470.88 2312.36 1468.77 Q2310.02 1466.67 2306.02 1466.67 Q2304.14 1466.67 2302.27 1467.08 Q2300.42 1467.5 2298.47 1468.38 L2298.47 1451.02 Z" fill="#000000" fill-rule="nonzero" fill-opacity="1"></path><path clip-path="url(#clip040)" d="M1147.01 1520.52 L1153.44 1520.52 L1153.44 1568.04 L1147.01 1568.04 L1147.01 1520.52 Z" fill="#000000" fill-rule="nonzero" fill-opacity="1"></path><path clip-path="url(#clip040)" d="M1171.77 1522.27 L1171.77 1532.4 L1183.83 1532.4 L1183.83 1536.95 L1171.77 1536.95 L1171.77 1556.3 Q1171.77 1560.66 1172.95 1561.9 Q1174.16 1563.14 1177.82 1563.14 L1183.83 1563.14 L1183.83 1568.04 L1177.82 1568.04 Q1171.04 1568.04 1168.46 1565.53 Q1165.88 1562.98 1165.88 1556.3 L1165.88 1536.95 L1161.59 1536.95 L1161.59 1532.4 L1165.88 1532.4 L1165.88 1522.27 L1171.77 1522.27 Z" fill="#000000" fill-rule="nonzero" fill-opacity="1"></path><path clip-path="url(#clip040)" d="M1222.03 1548.76 L1222.03 1551.62 L1195.1 1551.62 Q1195.48 1557.67 1198.73 1560.85 Q1202.01 1564 1207.83 1564 Q1211.21 1564 1214.36 1563.17 Q1217.54 1562.35 1220.66 1560.69 L1220.66 1566.23 Q1217.51 1567.57 1214.2 1568.27 Q1210.89 1568.97 1207.48 1568.97 Q1198.95 1568.97 1193.95 1564 Q1188.99 1559.04 1188.99 1550.57 Q1188.99 1541.82 1193.7 1536.69 Q1198.44 1531.54 1206.46 1531.54 Q1213.66 1531.54 1217.83 1536.18 Q1222.03 1540.8 1222.03 1548.76 M1216.17 1547.04 Q1216.11 1542.23 1213.47 1539.37 Q1210.86 1536.5 1206.53 1536.5 Q1201.63 1536.5 1198.67 1539.27 Q1195.74 1542.04 1195.29 1547.07 L1216.17 1547.04 Z" fill="#000000" fill-rule="nonzero" fill-opacity="1"></path><path clip-path="url(#clip040)" d="M1252.3 1537.87 Q1251.31 1537.3 1250.13 1537.04 Q1248.99 1536.76 1247.59 1536.76 Q1242.62 1536.76 1239.95 1540 Q1237.31 1543.22 1237.31 1549.27 L1237.31 1568.04 L1231.42 1568.04 L1231.42 1532.4 L1237.31 1532.4 L1237.31 1537.93 Q1239.15 1534.69 1242.11 1533.13 Q1245.07 1531.54 1249.3 1531.54 Q1249.91 1531.54 1250.64 1531.63 Q1251.37 1531.7 1252.26 1531.85 L1252.3 1537.87 Z" fill="#000000" fill-rule="nonzero" fill-opacity="1"></path><path clip-path="url(#clip040)" d="M1274.64 1550.12 Q1267.54 1550.12 1264.81 1551.75 Q1262.07 1553.37 1262.07 1557.29 Q1262.07 1560.4 1264.1 1562.25 Q1266.17 1564.07 1269.71 1564.07 Q1274.58 1564.07 1277.5 1560.63 Q1280.46 1557.16 1280.46 1551.43 L1280.46 1550.12 L1274.64 1550.12 M1286.32 1547.71 L1286.32 1568.04 L1280.46 1568.04 L1280.46 1562.63 Q1278.46 1565.88 1275.47 1567.44 Q1272.48 1568.97 1268.15 1568.97 Q1262.67 1568.97 1259.43 1565.91 Q1256.21 1562.82 1256.21 1557.67 Q1256.21 1551.65 1260.22 1548.6 Q1264.26 1545.54 1272.25 1545.54 L1280.46 1545.54 L1280.46 1544.97 Q1280.46 1540.93 1277.79 1538.73 Q1275.15 1536.5 1270.34 1536.5 Q1267.29 1536.5 1264.39 1537.23 Q1261.49 1537.97 1258.82 1539.43 L1258.82 1534.02 Q1262.04 1532.78 1265.06 1532.17 Q1268.08 1531.54 1270.95 1531.54 Q1278.68 1531.54 1282.5 1535.55 Q1286.32 1539.56 1286.32 1547.71 Z" fill="#000000" fill-rule="nonzero" fill-opacity="1"></path><path clip-path="url(#clip040)" d="M1304.18 1522.27 L1304.18 1532.4 L1316.24 1532.4 L1316.24 1536.95 L1304.18 1536.95 L1304.18 1556.3 Q1304.18 1560.66 1305.35 1561.9 Q1306.56 1563.14 1310.22 1563.14 L1316.24 1563.14 L1316.24 1568.04 L1310.22 1568.04 Q1303.44 1568.04 1300.87 1565.53 Q1298.29 1562.98 1298.29 1556.3 L1298.29 1536.95 L1293.99 1536.95 L1293.99 1532.4 L1298.29 1532.4 L1298.29 1522.27 L1304.18 1522.27 Z" fill="#000000" fill-rule="nonzero" fill-opacity="1"></path><path clip-path="url(#clip040)" d="M1323.94 1532.4 L1329.8 1532.4 L1329.8 1568.04 L1323.94 1568.04 L1323.94 1532.4 M1323.94 1518.52 L1329.8 1518.52 L1329.8 1525.93 L1323.94 1525.93 L1323.94 1518.52 Z" fill="#000000" fill-rule="nonzero" fill-opacity="1"></path><path clip-path="url(#clip040)" d="M1355.87 1536.5 Q1351.16 1536.5 1348.42 1540.19 Q1345.68 1543.85 1345.68 1550.25 Q1345.68 1556.65 1348.39 1560.34 Q1351.12 1564 1355.87 1564 Q1360.55 1564 1363.28 1560.31 Q1366.02 1556.62 1366.02 1550.25 Q1366.02 1543.92 1363.28 1540.23 Q1360.55 1536.5 1355.87 1536.5 M1355.87 1531.54 Q1363.51 1531.54 1367.87 1536.5 Q1372.23 1541.47 1372.23 1550.25 Q1372.23 1559 1367.87 1564 Q1363.51 1568.97 1355.87 1568.97 Q1348.2 1568.97 1343.84 1564 Q1339.51 1559 1339.51 1550.25 Q1339.51 1541.47 1343.84 1536.5 Q1348.2 1531.54 1355.87 1531.54 Z" fill="#000000" fill-rule="nonzero" fill-opacity="1"></path><path clip-path="url(#clip040)" d="M1411.57 1546.53 L1411.57 1568.04 L1405.71 1568.04 L1405.71 1546.72 Q1405.71 1541.66 1403.74 1539.14 Q1401.76 1536.63 1397.82 1536.63 Q1393.07 1536.63 1390.34 1539.65 Q1387.6 1542.68 1387.6 1547.9 L1387.6 1568.04 L1381.71 1568.04 L1381.71 1532.4 L1387.6 1532.4 L1387.6 1537.93 Q1389.7 1534.72 1392.53 1533.13 Q1395.4 1531.54 1399.12 1531.54 Q1405.26 1531.54 1408.42 1535.36 Q1411.57 1539.14 1411.57 1546.53 Z" fill="#000000" fill-rule="nonzero" fill-opacity="1"></path><path clip-path="url(#clip040)" d="M1445.97 1533.45 L1445.97 1538.98 Q1443.49 1537.71 1440.82 1537.07 Q1438.14 1536.44 1435.28 1536.44 Q1430.92 1536.44 1428.72 1537.77 Q1426.56 1539.11 1426.56 1541.79 Q1426.56 1543.82 1428.12 1545 Q1429.68 1546.15 1434.39 1547.2 L1436.39 1547.64 Q1442.63 1548.98 1445.24 1551.43 Q1447.88 1553.85 1447.88 1558.21 Q1447.88 1563.17 1443.94 1566.07 Q1440.02 1568.97 1433.15 1568.97 Q1430.28 1568.97 1427.16 1568.39 Q1424.08 1567.85 1420.64 1566.74 L1420.64 1560.69 Q1423.88 1562.38 1427.04 1563.24 Q1430.19 1564.07 1433.27 1564.07 Q1437.41 1564.07 1439.64 1562.66 Q1441.87 1561.23 1441.87 1558.65 Q1441.87 1556.27 1440.24 1554.99 Q1438.65 1553.72 1433.21 1552.54 L1431.17 1552.07 Q1425.73 1550.92 1423.31 1548.56 Q1420.89 1546.18 1420.89 1542.04 Q1420.89 1537.01 1424.46 1534.27 Q1428.02 1531.54 1434.58 1531.54 Q1437.83 1531.54 1440.69 1532.01 Q1443.55 1532.49 1445.97 1533.45 Z" fill="#000000" fill-rule="nonzero" fill-opacity="1"></path><polyline clip-path="url(#clip040)" style="stroke:#000000; stroke-linecap:round; stroke-linejoin:round; stroke-width:4; stroke-opacity:1; fill:none" points="242.135,1423.18 242.135,123.472 "></polyline>
<polyline clip-path="url(#clip040)" style="stroke:#000000; stroke-linecap:round; stroke-linejoin:round; stroke-width:4; stroke-opacity:1; fill:none" points="242.135,1353.08 261.032,1353.08 "></polyline>
<polyline clip-path="url(#clip040)" style="stroke:#000000; stroke-linecap:round; stroke-linejoin:round; stroke-width:4; stroke-opacity:1; fill:none" points="242.135,1036.49 261.032,1036.49 "></polyline>
<polyline clip-path="url(#clip040)" style="stroke:#000000; stroke-linecap:round; stroke-linejoin:round; stroke-width:4; stroke-opacity:1; fill:none" points="242.135,719.911 261.032,719.911 "></polyline>
<polyline clip-path="url(#clip040)" style="stroke:#000000; stroke-linecap:round; stroke-linejoin:round; stroke-width:4; stroke-opacity:1; fill:none" points="242.135,403.327 261.032,403.327 "></polyline>
<path clip-path="url(#clip040)" d="M114.26 1353.53 L143.936 1353.53 L143.936 1357.46 L114.26 1357.46 L114.26 1353.53 Z" fill="#000000" fill-rule="nonzero" fill-opacity="1"></path><path clip-path="url(#clip040)" d="M158.056 1366.42 L174.376 1366.42 L174.376 1370.36 L152.431 1370.36 L152.431 1366.42 Q155.093 1363.67 159.677 1359.04 Q164.283 1354.38 165.464 1353.04 Q167.709 1350.52 168.589 1348.78 Q169.491 1347.02 169.491 1345.33 Q169.491 1342.58 167.547 1340.84 Q165.626 1339.11 162.524 1339.11 Q160.325 1339.11 157.871 1339.87 Q155.44 1340.63 152.663 1342.19 L152.663 1337.46 Q155.487 1336.33 157.94 1335.75 Q160.394 1335.17 162.431 1335.17 Q167.802 1335.17 170.996 1337.86 Q174.19 1340.54 174.19 1345.03 Q174.19 1347.16 173.38 1349.08 Q172.593 1350.98 170.487 1353.57 Q169.908 1354.25 166.806 1357.46 Q163.704 1360.66 158.056 1366.42 Z" fill="#000000" fill-rule="nonzero" fill-opacity="1"></path><path clip-path="url(#clip040)" d="M194.19 1338.88 Q190.579 1338.88 188.75 1342.44 Q186.945 1345.98 186.945 1353.11 Q186.945 1360.22 188.75 1363.78 Q190.579 1367.32 194.19 1367.32 Q197.825 1367.32 199.63 1363.78 Q201.459 1360.22 201.459 1353.11 Q201.459 1345.98 199.63 1342.44 Q197.825 1338.88 194.19 1338.88 M194.19 1335.17 Q200 1335.17 203.056 1339.78 Q206.135 1344.36 206.135 1353.11 Q206.135 1361.84 203.056 1366.44 Q200 1371.03 194.19 1371.03 Q188.38 1371.03 185.301 1366.44 Q182.246 1361.84 182.246 1353.11 Q182.246 1344.36 185.301 1339.78 Q188.38 1335.17 194.19 1335.17 Z" fill="#000000" fill-rule="nonzero" fill-opacity="1"></path><path clip-path="url(#clip040)" d="M115.256 1036.95 L144.931 1036.95 L144.931 1040.88 L115.256 1040.88 L115.256 1036.95 Z" fill="#000000" fill-rule="nonzero" fill-opacity="1"></path><path clip-path="url(#clip040)" d="M155.834 1049.84 L163.473 1049.84 L163.473 1023.47 L155.163 1025.14 L155.163 1020.88 L163.427 1019.21 L168.102 1019.21 L168.102 1049.84 L175.741 1049.84 L175.741 1053.77 L155.834 1053.77 L155.834 1049.84 Z" fill="#000000" fill-rule="nonzero" fill-opacity="1"></path><path clip-path="url(#clip040)" d="M185.232 1019.21 L203.588 1019.21 L203.588 1023.15 L189.514 1023.15 L189.514 1031.62 Q190.533 1031.27 191.551 1031.11 Q192.57 1030.93 193.588 1030.93 Q199.375 1030.93 202.755 1034.1 Q206.135 1037.27 206.135 1042.69 Q206.135 1048.26 202.662 1051.37 Q199.19 1054.45 192.871 1054.45 Q190.695 1054.45 188.426 1054.07 Q186.181 1053.7 183.774 1052.96 L183.774 1048.26 Q185.857 1049.4 188.079 1049.95 Q190.301 1050.51 192.778 1050.51 Q196.783 1050.51 199.121 1048.4 Q201.459 1046.3 201.459 1042.69 Q201.459 1039.07 199.121 1036.97 Q196.783 1034.86 192.778 1034.86 Q190.903 1034.86 189.028 1035.28 Q187.176 1035.7 185.232 1036.57 L185.232 1019.21 Z" fill="#000000" fill-rule="nonzero" fill-opacity="1"></path><path clip-path="url(#clip040)" d="M114.26 720.362 L143.936 720.362 L143.936 724.297 L114.26 724.297 L114.26 720.362 Z" fill="#000000" fill-rule="nonzero" fill-opacity="1"></path><path clip-path="url(#clip040)" d="M154.839 733.255 L162.477 733.255 L162.477 706.89 L154.167 708.556 L154.167 704.297 L162.431 702.631 L167.107 702.631 L167.107 733.255 L174.746 733.255 L174.746 737.191 L154.839 737.191 L154.839 733.255 Z" fill="#000000" fill-rule="nonzero" fill-opacity="1"></path><path clip-path="url(#clip040)" d="M194.19 705.709 Q190.579 705.709 188.75 709.274 Q186.945 712.816 186.945 719.945 Q186.945 727.052 188.75 730.617 Q190.579 734.158 194.19 734.158 Q197.825 734.158 199.63 730.617 Q201.459 727.052 201.459 719.945 Q201.459 712.816 199.63 709.274 Q197.825 705.709 194.19 705.709 M194.19 702.006 Q200 702.006 203.056 706.612 Q206.135 711.195 206.135 719.945 Q206.135 728.672 203.056 733.279 Q200 737.862 194.19 737.862 Q188.38 737.862 185.301 733.279 Q182.246 728.672 182.246 719.945 Q182.246 711.195 185.301 706.612 Q188.38 702.006 194.19 702.006 Z" fill="#000000" fill-rule="nonzero" fill-opacity="1"></path><path clip-path="url(#clip040)" d="M145.417 403.779 L175.093 403.779 L175.093 407.714 L145.417 407.714 L145.417 403.779 Z" fill="#000000" fill-rule="nonzero" fill-opacity="1"></path><path clip-path="url(#clip040)" d="M185.232 386.047 L203.588 386.047 L203.588 389.983 L189.514 389.983 L189.514 398.455 Q190.533 398.108 191.551 397.945 Q192.57 397.76 193.588 397.76 Q199.375 397.76 202.755 400.932 Q206.135 404.103 206.135 409.519 Q206.135 415.098 202.662 418.2 Q199.19 421.279 192.871 421.279 Q190.695 421.279 188.426 420.908 Q186.181 420.538 183.774 419.797 L183.774 415.098 Q185.857 416.232 188.079 416.788 Q190.301 417.344 192.778 417.344 Q196.783 417.344 199.121 415.237 Q201.459 413.131 201.459 409.519 Q201.459 405.908 199.121 403.802 Q196.783 401.695 192.778 401.695 Q190.903 401.695 189.028 402.112 Q187.176 402.529 185.232 403.408 L185.232 386.047 Z" fill="#000000" fill-rule="nonzero" fill-opacity="1"></path><path clip-path="url(#clip040)" d="M63.3563 1002.35 L61.3273 1002.35 Q61.3273 998.841 60.9086 998.036 Q60.4578 997.231 58.3322 997.231 L24.0329 997.231 Q21.5853 997.231 20.9734 998.1 Q20.3615 998.938 20.3615 1002.35 L18.3003 1002.35 L17.5918 992.883 L58.3322 992.883 Q60.4578 992.883 60.9086 992.046 Q61.3273 991.208 61.3273 987.73 L63.3563 987.73 Q63.3563 988.535 63.2919 990.21 Q63.2275 991.885 63.1953 993.108 Q63.163 994.332 63.163 995.041 Q63.163 995.814 63.3563 1002.35 Z" fill="#000000" fill-rule="nonzero" fill-opacity="1"></path><path clip-path="url(#clip040)" d="M59.8136 977.805 Q55.4981 982.153 49.2501 982.153 Q42.97 982.153 38.3967 977.902 Q33.7913 973.618 33.7913 967.499 Q33.7913 961.509 38.3645 957.226 Q42.9056 952.91 49.2501 952.91 Q55.4658 952.91 59.7814 957.258 Q64.097 961.574 64.097 967.564 Q64.097 973.425 59.8136 977.805 M48.7026 976.678 Q55.1116 976.678 58.0101 975.003 Q62.4223 972.427 62.4223 967.499 Q62.4223 965.052 61.1019 963.023 Q59.7814 960.962 57.5592 959.834 Q54.6607 958.385 48.7026 958.385 Q42.3581 958.385 39.5562 960.124 Q35.2728 962.701 35.2728 967.564 Q35.2728 969.689 36.4 971.783 Q37.495 973.844 39.685 975.1 Q42.5835 976.678 48.7026 976.678 Z" fill="#000000" fill-rule="nonzero" fill-opacity="1"></path><path clip-path="url(#clip040)" d="M68.5736 951.865 Q66.448 951.865 64.6123 950.255 Q62.7766 948.612 61.9714 945.778 Q60.1357 948.677 56.11 948.677 Q53.0182 948.677 50.635 946.648 Q48.0585 949.739 43.8395 949.739 Q39.9426 949.739 37.0763 946.648 Q34.21 943.556 34.21 939.047 Q34.21 935.086 36.5932 932.058 Q33.5014 928.902 33.4692 925.07 Q33.4692 923.363 34.532 922.558 Q35.5948 921.72 36.722 921.72 Q37.7204 921.72 38.2035 922.364 Q38.6866 922.976 38.6866 923.62 Q38.6866 924.426 38.1713 925.005 Q37.6238 925.553 36.7864 925.553 Q35.4016 925.553 34.9829 924.49 Q34.9185 924.683 34.9185 925.134 Q34.9185 928.355 37.495 931.092 Q40.007 928.387 43.9039 928.387 Q47.8009 928.387 50.6672 931.479 Q53.5335 934.57 53.5335 939.047 Q53.5335 942.751 51.4723 945.585 Q52.7928 946.712 54.5963 946.712 Q56.2388 946.712 57.527 945.714 Q58.8153 944.715 59.0085 943.202 Q59.0729 942.751 59.0729 938.274 Q59.0729 935.633 59.1373 934.184 Q59.2017 932.735 59.6526 930.674 Q60.0713 928.58 60.9086 926.938 Q63.2919 922.654 68.4448 922.622 Q72.2129 922.622 74.5639 926.97 Q76.9472 931.285 76.9472 937.276 Q76.9472 943.33 74.5317 947.614 Q72.1485 951.865 68.5736 951.865 M68.5736 948.419 Q71.2789 948.419 73.3401 945.231 Q75.4335 942.042 75.4335 937.211 Q75.4335 932.477 73.3723 929.289 Q71.3433 926.068 68.5736 926.068 Q66.6091 926.068 65.353 927.195 Q64.097 928.322 63.5817 930.641 Q63.0986 932.928 63.002 934.538 Q62.9054 936.149 62.9054 939.111 L62.9054 943.008 Q63.0342 945.263 64.6767 946.841 Q66.3192 948.419 68.5736 948.419 M43.9039 944.812 Q52.0198 944.812 52.0198 939.047 Q52.0198 936.149 49.3789 934.377 Q47.6076 933.314 43.8395 933.314 Q35.7237 933.314 35.7237 939.047 Q35.7237 941.946 38.3645 943.749 Q40.1359 944.812 43.9039 944.812 Z" fill="#000000" fill-rule="nonzero" fill-opacity="1"></path><path clip-path="url(#clip040)" d="M77.8167 911.357 L16.4001 911.357 Q13.9525 911.357 13.9525 910.037 Q13.9525 908.716 15.917 908.716 L77.3336 908.716 Q79.7813 908.716 79.7813 910.037 Q79.7813 911.357 77.8167 911.357 Z" fill="#000000" fill-rule="nonzero" fill-opacity="1"></path><path clip-path="url(#clip040)" d="M36.4966 848.512 Q38.751 848.512 38.751 851.732 L38.751 859.269 Q44.0972 860.428 49.2501 860.428 Q55.4014 860.428 60.1357 858.528 Q61.0697 858.141 61.585 858.141 Q62.5511 858.141 63.3241 859.011 Q64.097 859.848 64.097 860.847 Q64.097 861.684 63.4529 862.232 Q62.8088 862.747 60.7798 863.198 Q58.3966 863.745 55.7557 863.745 Q52.5995 863.745 49.5722 863.23 Q46.5126 862.715 38.751 860.976 L38.751 868.415 L53.3403 872.119 Q58.2678 873.439 59.7814 873.89 Q60.6832 874.18 60.973 874.277 Q61.2629 874.373 61.9714 874.663 Q62.6478 874.921 62.9054 875.114 Q63.1308 875.307 63.4851 875.629 Q63.8716 875.951 63.9682 876.338 Q64.097 876.724 64.097 877.207 Q64.097 877.948 63.6139 878.528 Q63.163 879.107 62.2935 879.107 Q61.7138 879.107 60.7154 878.592 Q47.511 872.473 38.751 870.154 L38.751 873.89 Q38.751 879.043 43.8395 882.264 Q44.5159 882.779 44.5803 883.069 Q44.6125 883.198 44.6125 883.326 Q44.6125 883.681 44.4514 883.906 Q44.2904 884.099 44.1294 884.099 L43.9684 884.132 Q43.7751 884.132 42.9056 883.648 Q42.0038 883.133 40.6189 882.167 Q39.2341 881.169 38.0425 880.106 Q36.9475 879.075 36.2712 878.077 Q35.5626 877.046 35.305 876.08 Q35.0473 875.114 34.9829 874.566 Q34.9185 874.019 34.9185 873.246 L34.9185 851.153 Q34.9185 850.315 34.9829 849.865 Q35.0151 849.414 35.4016 848.963 Q35.7559 848.512 36.4966 848.512 Z" fill="#000000" fill-rule="nonzero" fill-opacity="1"></path><path clip-path="url(#clip040)" d="M69.6127 820.68 Q72.5209 821.288 74.1892 822.077 Q76.7367 823.34 76.7367 825.481 Q76.7367 827.105 75.7447 828.254 Q74.7528 829.404 73.2649 829.675 Q76.7367 832.628 76.7367 835.694 Q76.7367 838.399 74.6852 840.113 Q72.6111 841.826 69.3422 841.826 Q66.0508 841.826 62.8946 840.203 Q59.7384 838.557 57.7771 835.964 Q55.8157 833.372 55.8157 830.712 Q55.8157 827.894 58.769 826.451 Q57.9574 826.338 57.3487 825.82 Q56.7401 825.301 56.7401 824.512 Q56.7401 823.903 57.0782 823.543 Q57.3938 823.182 57.98 823.182 Q58.2731 823.182 59.5581 823.498 L66.0057 825.166 L70.1763 826.18 Q71.7093 826.564 72.2729 826.676 Q72.8365 826.767 73.5805 826.767 Q75.6996 826.767 75.6996 825.391 Q75.6996 824.715 75.2713 824.174 Q74.843 823.633 73.9412 823.205 Q73.0394 822.776 72.2053 822.506 Q71.3486 822.235 69.996 821.874 Q69.4549 821.762 69.3197 821.672 Q69.1619 821.559 69.1619 821.243 Q69.1619 820.68 69.6127 820.68 M60.8882 827.014 Q60.6853 827.014 60.1217 827.172 Q59.5581 827.33 58.769 827.691 Q57.98 828.052 57.4164 828.841 Q56.8302 829.607 56.8302 830.644 Q56.8302 832.042 58.0251 833.507 Q59.2199 834.95 61.2489 836.01 Q62.872 836.821 66.2762 837.7 Q69.6804 838.557 71.3712 838.557 Q72.4082 838.557 73.3325 838.332 Q74.2343 838.084 74.9782 837.385 Q75.6996 836.686 75.6996 835.604 Q75.6996 832.966 72.4307 830.374 Q71.8671 829.878 71.6417 829.765 Q71.3937 829.63 70.7174 829.449 L61.6772 827.15 Q61.0009 827.014 60.8882 827.014 Z" fill="#000000" fill-rule="nonzero" fill-opacity="1"></path><path clip-path="url(#clip040)" d="M63.1877 797.218 Q66.4791 797.218 69.6578 798.886 Q72.8365 800.532 74.7979 803.124 Q76.7367 805.717 76.7367 808.354 Q76.7367 809.932 75.88 810.992 Q75.0008 812.029 73.7609 812.593 Q75.2938 813.021 78.9685 813.945 Q82.6432 814.87 83.0039 814.87 Q83.2068 814.87 83.297 814.824 Q83.3872 814.779 83.4999 814.576 Q83.6352 814.374 83.6803 813.878 Q83.7479 813.382 83.7479 812.548 Q83.7479 812.119 83.7479 811.961 Q83.7704 811.781 83.8832 811.623 Q83.9959 811.443 84.2439 811.443 Q85.1682 811.443 85.1682 812.277 Q85.1682 813.021 85.1005 814.554 Q85.0329 816.087 85.0329 816.853 Q85.0329 817.507 85.1005 818.815 Q85.1682 820.122 85.1682 820.731 Q85.1682 821.34 84.6271 821.34 Q84.3115 821.34 84.1086 821.25 Q83.9282 821.182 83.8381 821.002 Q83.7704 820.821 83.7479 820.663 Q83.7479 820.528 83.7479 820.258 Q83.7479 819.221 83.5675 818.77 Q83.4097 818.319 83.0716 818.161 Q82.7559 817.981 81.8542 817.778 L61.294 812.593 Q59.9188 812.277 58.9494 812.277 Q57.732 812.277 57.2811 812.66 Q56.8302 813.043 56.8302 813.72 Q56.8302 814.892 58.228 815.659 Q59.6257 816.425 62.331 817.079 Q63.0749 817.282 63.2328 817.417 Q63.3906 817.53 63.3906 817.868 Q63.368 818.432 62.9171 818.432 Q62.8044 818.432 62.083 818.251 Q61.339 818.071 60.2569 817.733 Q59.1523 817.372 58.4534 816.989 Q57.98 816.763 57.6644 816.56 Q57.3487 816.357 56.8528 815.952 Q56.3568 815.523 56.0863 814.915 Q55.8157 814.306 55.8157 813.562 Q55.8157 812.119 56.6724 810.924 Q57.5291 809.73 59.265 809.414 Q57.7545 808.129 56.7851 806.551 Q55.8157 804.973 55.8157 803.372 Q55.8157 800.712 57.8898 798.976 Q59.9413 797.218 63.1877 797.218 M61.1587 800.554 Q59.1072 800.554 57.98 801.343 Q56.8302 802.11 56.8302 803.507 Q56.8302 805.243 58.5887 807.25 Q60.2569 809.234 61.8125 809.639 L70.8527 811.916 L71.5966 812.052 Q71.7319 812.052 72.1377 811.984 Q72.5209 811.894 73.1522 811.646 Q73.7834 811.375 74.347 811.015 Q74.8881 810.631 75.2938 809.955 Q75.6996 809.256 75.6996 808.399 Q75.6996 807.024 74.4823 805.536 Q73.2649 804.026 70.9654 802.899 Q69.4775 802.2 66.2762 801.388 Q63.0524 800.554 61.1587 800.554 Z" fill="#000000" fill-rule="nonzero" fill-opacity="1"></path><path clip-path="url(#clip040)" d="M63.1877 774.034 Q66.4791 774.034 69.6578 775.702 Q72.8365 777.348 74.7979 779.94 Q76.7367 782.533 76.7367 785.171 Q76.7367 786.749 75.88 787.808 Q75.0008 788.845 73.7609 789.409 Q75.2938 789.837 78.9685 790.762 Q82.6432 791.686 83.0039 791.686 Q83.2068 791.686 83.297 791.641 Q83.3872 791.596 83.4999 791.393 Q83.6352 791.19 83.6803 790.694 Q83.7479 790.198 83.7479 789.364 Q83.7479 788.936 83.7479 788.778 Q83.7704 788.597 83.8832 788.44 Q83.9959 788.259 84.2439 788.259 Q85.1682 788.259 85.1682 789.093 Q85.1682 789.837 85.1005 791.37 Q85.0329 792.903 85.0329 793.67 Q85.0329 794.324 85.1005 795.631 Q85.1682 796.939 85.1682 797.547 Q85.1682 798.156 84.6271 798.156 Q84.3115 798.156 84.1086 798.066 Q83.9282 797.998 83.8381 797.818 Q83.7704 797.638 83.7479 797.48 Q83.7479 797.345 83.7479 797.074 Q83.7479 796.037 83.5675 795.586 Q83.4097 795.135 83.0716 794.977 Q82.7559 794.797 81.8542 794.594 L61.294 789.409 Q59.9188 789.093 58.9494 789.093 Q57.732 789.093 57.2811 789.477 Q56.8302 789.86 56.8302 790.536 Q56.8302 791.708 58.228 792.475 Q59.6257 793.241 62.331 793.895 Q63.0749 794.098 63.2328 794.233 Q63.3906 794.346 63.3906 794.684 Q63.368 795.248 62.9171 795.248 Q62.8044 795.248 62.083 795.068 Q61.339 794.887 60.2569 794.549 Q59.1523 794.188 58.4534 793.805 Q57.98 793.58 57.6644 793.377 Q57.3487 793.174 56.8528 792.768 Q56.3568 792.34 56.0863 791.731 Q55.8157 791.122 55.8157 790.378 Q55.8157 788.936 56.6724 787.741 Q57.5291 786.546 59.265 786.23 Q57.7545 784.945 56.7851 783.367 Q55.8157 781.789 55.8157 780.188 Q55.8157 777.528 57.8898 775.792 Q59.9413 774.034 63.1877 774.034 M61.1587 777.37 Q59.1072 777.37 57.98 778.159 Q56.8302 778.926 56.8302 780.324 Q56.8302 782.06 58.5887 784.066 Q60.2569 786.05 61.8125 786.456 L70.8527 788.733 L71.5966 788.868 Q71.7319 788.868 72.1377 788.8 Q72.5209 788.71 73.1522 788.462 Q73.7834 788.192 74.347 787.831 Q74.8881 787.448 75.2938 786.771 Q75.6996 786.072 75.6996 785.216 Q75.6996 783.841 74.4823 782.353 Q73.2649 780.842 70.9654 779.715 Q69.4775 779.016 66.2762 778.205 Q63.0524 777.37 61.1587 777.37 Z" fill="#000000" fill-rule="nonzero" fill-opacity="1"></path><path clip-path="url(#clip040)" d="M58.8141 753.583 Q60.0089 753.583 60.7754 754.373 Q61.5419 755.139 61.5419 756.131 Q61.5419 756.988 61.046 757.439 Q60.55 757.889 59.9188 757.889 Q59.017 757.889 58.2731 757.191 Q57.5291 756.492 57.3713 755.477 Q56.8302 756.221 56.8302 757.416 Q56.8302 759.377 58.3407 761.113 Q59.0396 761.88 60.3246 762.714 Q61.587 763.548 62.1281 763.706 L68.1474 765.171 Q68.8237 765.306 72.07 766.141 Q75.2938 766.952 75.4291 767.02 Q76.0603 767.245 76.3985 767.741 Q76.7367 768.237 76.7367 768.733 Q76.7367 769.297 76.3985 769.68 Q76.0603 770.063 75.4742 770.063 Q75.384 770.063 75.0459 769.996 Q74.7077 769.928 74.2343 769.815 Q73.7609 769.703 73.4903 769.657 L62.827 766.975 Q60.8882 766.479 60.2795 766.366 Q59.6482 766.231 58.9494 766.231 Q57.732 766.231 57.2811 766.614 Q56.8302 766.997 56.8302 767.674 Q56.8302 768.846 58.228 769.612 Q59.6257 770.379 62.331 771.033 Q63.0749 771.236 63.2328 771.371 Q63.3906 771.484 63.3906 771.822 Q63.368 772.385 62.9171 772.385 Q62.8044 772.385 62.083 772.205 Q61.339 772.025 60.2569 771.686 Q59.1523 771.326 58.4534 770.942 Q57.98 770.717 57.6644 770.514 Q57.3487 770.311 56.8528 769.905 Q56.3568 769.5 56.0863 768.891 Q55.8157 768.282 55.8157 767.538 Q55.8157 765.915 56.8077 764.765 Q57.7996 763.593 59.3552 763.323 Q58.5436 762.759 57.8447 762.06 Q57.1233 761.361 56.4695 760.076 Q55.8157 758.791 55.8157 757.416 Q55.8157 755.703 56.695 754.643 Q57.5516 753.583 58.8141 753.583 Z" fill="#000000" fill-rule="nonzero" fill-opacity="1"></path><path clip-path="url(#clip040)" d="M63.616 730.39 Q66.0733 730.39 68.5081 731.472 Q70.9203 732.554 72.7238 734.29 Q74.5048 736.003 75.632 738.257 Q76.7367 740.512 76.7367 742.766 Q76.7367 745.99 74.5499 748.087 Q72.3406 750.161 68.9139 750.161 Q65.7126 750.161 62.6692 748.38 Q59.6032 746.576 57.7094 743.691 Q55.8157 740.805 55.8157 737.784 Q55.8157 734.605 57.9574 732.509 Q60.0991 730.39 63.616 730.39 M61.8125 733.771 Q59.6257 733.771 58.228 734.831 Q56.8302 735.89 56.8302 737.829 Q56.8302 738.393 57.0106 739.047 Q57.1684 739.7 57.5967 740.557 Q58.0251 741.391 58.9268 742.338 Q59.8061 743.262 61.0685 744.074 Q62.7368 745.133 65.8028 745.945 Q68.8462 746.734 70.6723 746.734 Q73.1972 746.734 74.4597 745.562 Q75.6996 744.389 75.6996 742.721 Q75.6996 741.098 74.5724 739.385 Q73.4227 737.649 71.4614 736.454 Q69.4324 735.259 66.4566 734.515 Q63.4582 733.771 61.8125 733.771 Z" fill="#000000" fill-rule="nonzero" fill-opacity="1"></path><path clip-path="url(#clip040)" d="M58.8592 706.967 Q60.1217 706.967 60.8431 707.756 Q61.5419 708.545 61.5419 709.447 Q61.5419 710.304 61.046 710.755 Q60.55 711.205 59.9188 711.205 Q59.0621 711.205 58.3181 710.574 Q57.5742 709.943 57.4164 708.996 Q56.8302 709.92 56.8302 711.296 Q56.8302 712.197 57.3037 712.986 Q57.7771 713.753 58.3858 714.226 Q58.9945 714.677 59.8737 715.083 Q60.7304 715.466 61.2489 715.624 Q61.7448 715.759 62.2859 715.872 L68.5983 717.45 Q71.5966 718.217 72.6562 718.217 Q73.9637 718.217 74.843 717.585 Q75.6996 716.954 75.6996 715.692 Q75.6996 715.196 75.5644 714.632 Q75.4066 714.069 75.0008 713.347 Q74.5724 712.603 73.9412 711.949 Q73.2874 711.273 72.1828 710.619 Q71.0781 709.966 69.6578 709.537 Q69.1619 709.402 69.1619 708.951 Q69.1619 708.387 69.6127 708.387 Q69.996 708.387 70.8076 708.703 Q71.5966 708.996 72.6336 709.65 Q73.6481 710.281 74.5724 711.115 Q75.4742 711.949 76.1054 713.189 Q76.7367 714.429 76.7367 715.782 Q76.7367 717.721 75.6996 719.006 Q74.6626 720.291 73.2198 720.764 Q73.4227 720.877 73.6932 721.035 Q73.9637 721.192 74.5724 721.666 Q75.1586 722.117 75.6095 722.635 Q76.0378 723.154 76.376 723.965 Q76.7367 724.754 76.7367 725.611 Q76.7367 726.693 76.4211 727.663 Q76.1054 728.609 75.384 729.286 Q74.6626 729.962 73.6707 729.962 Q72.566 729.962 71.7995 729.218 Q71.0105 728.452 71.0105 727.415 Q71.0105 726.761 71.3937 726.242 Q71.777 725.701 72.6111 725.701 Q73.5354 725.701 74.2343 726.333 Q74.9331 726.964 75.1135 727.866 Q75.6996 726.941 75.6996 725.566 Q75.6996 724.078 74.3921 722.906 Q73.0845 721.734 70.8977 721.17 Q65.645 719.772 63.3004 719.231 Q60.9333 718.69 59.9188 718.69 Q58.9719 718.69 58.3181 718.938 Q57.6644 719.186 57.3713 719.614 Q57.0557 720.02 56.9429 720.403 Q56.8302 720.764 56.8302 721.17 Q56.8302 721.846 57.1008 722.613 Q57.3713 723.357 58.0025 724.258 Q58.6112 725.138 59.8737 725.972 Q61.1362 726.806 62.872 727.37 Q63.3906 727.482 63.3906 727.978 Q63.368 728.519 62.9171 728.519 Q62.5339 728.519 61.7448 728.226 Q60.9333 727.911 59.9188 727.279 Q58.9043 726.626 58.0025 725.791 Q57.0782 724.935 56.447 723.695 Q55.8157 722.432 55.8157 721.08 Q55.8157 720.471 55.951 719.885 Q56.0637 719.276 56.4019 718.555 Q56.7401 717.811 57.484 717.157 Q58.228 716.503 59.3101 716.098 Q58.7916 715.827 58.2956 715.466 Q57.7996 715.083 57.1909 714.497 Q56.5597 713.888 56.199 713.054 Q55.8157 712.197 55.8157 711.251 Q55.8157 710.326 56.0637 709.424 Q56.2892 708.523 57.0331 707.756 Q57.7545 706.967 58.8592 706.967 Z" fill="#000000" fill-rule="nonzero" fill-opacity="1"></path><path clip-path="url(#clip040)" d="M45.9329 634.93 Q46.3194 634.544 46.8669 634.544 Q47.4144 634.544 47.8009 634.93 Q48.1873 635.316 48.1873 635.864 L48.1873 677.152 Q48.1873 677.699 47.8009 678.086 Q47.4144 678.472 46.8669 678.472 Q46.3194 678.472 45.9329 678.086 Q45.5464 677.699 45.5464 677.152 L45.5464 635.864 Q45.5464 635.316 45.9329 634.93 Z" fill="#000000" fill-rule="nonzero" fill-opacity="1"></path><path clip-path="url(#clip040)" d="M36.4966 573.736 Q38.751 573.736 38.751 576.956 L38.751 584.492 Q44.0972 585.652 49.2501 585.652 Q55.4014 585.652 60.1357 583.752 Q61.0697 583.365 61.585 583.365 Q62.5511 583.365 63.3241 584.235 Q64.097 585.072 64.097 586.071 Q64.097 586.908 63.4529 587.455 Q62.8088 587.971 60.7798 588.422 Q58.3966 588.969 55.7557 588.969 Q52.5995 588.969 49.5722 588.454 Q46.5126 587.939 38.751 586.199 L38.751 593.639 L53.3403 597.343 Q58.2678 598.663 59.7814 599.114 Q60.6832 599.404 60.973 599.5 Q61.2629 599.597 61.9714 599.887 Q62.6478 600.145 62.9054 600.338 Q63.1308 600.531 63.4851 600.853 Q63.8716 601.175 63.9682 601.562 Q64.097 601.948 64.097 602.431 Q64.097 603.172 63.6139 603.752 Q63.163 604.331 62.2935 604.331 Q61.7138 604.331 60.7154 603.816 Q47.511 597.697 38.751 595.378 L38.751 599.114 Q38.751 604.267 43.8395 607.487 Q44.5159 608.003 44.5803 608.293 Q44.6125 608.421 44.6125 608.55 Q44.6125 608.905 44.4514 609.13 Q44.2904 609.323 44.1294 609.323 L43.9684 609.355 Q43.7751 609.355 42.9056 608.872 Q42.0038 608.357 40.6189 607.391 Q39.2341 606.392 38.0425 605.33 Q36.9475 604.299 36.2712 603.301 Q35.5626 602.27 35.305 601.304 Q35.0473 600.338 34.9829 599.79 Q34.9185 599.243 34.9185 598.47 L34.9185 576.377 Q34.9185 575.539 34.9829 575.088 Q35.0151 574.637 35.4016 574.187 Q35.7559 573.736 36.4966 573.736 Z" fill="#000000" fill-rule="nonzero" fill-opacity="1"></path><path clip-path="url(#clip040)" d="M77.8167 563.682 L16.4001 563.682 Q13.9525 563.682 13.9525 562.361 Q13.9525 561.041 15.917 561.041 L77.3336 561.041 Q79.7813 561.041 79.7813 562.361 Q79.7813 563.682 77.8167 563.682 Z" fill="#000000" fill-rule="nonzero" fill-opacity="1"></path><path clip-path="url(#clip040)" d="M703.421 12.096 L711.604 12.096 L711.604 65.6895 L741.054 65.6895 L741.054 72.576 L703.421 72.576 L703.421 12.096 Z" fill="#000000" fill-rule="nonzero" fill-opacity="1"></path><path clip-path="url(#clip040)" d="M765.44 32.4315 Q759.445 32.4315 755.961 37.1306 Q752.477 41.7891 752.477 49.9314 Q752.477 58.0738 755.92 62.7728 Q759.404 67.4314 765.44 67.4314 Q771.395 67.4314 774.879 62.7323 Q778.362 58.0333 778.362 49.9314 Q778.362 41.8701 774.879 37.1711 Q771.395 32.4315 765.44 32.4315 M765.44 26.1121 Q775.162 26.1121 780.712 32.4315 Q786.262 38.7509 786.262 49.9314 Q786.262 61.0714 780.712 67.4314 Q775.162 73.7508 765.44 73.7508 Q755.677 73.7508 750.128 67.4314 Q744.618 61.0714 744.618 49.9314 Q744.618 38.7509 750.128 32.4315 Q755.677 26.1121 765.44 26.1121 Z" fill="#000000" fill-rule="nonzero" fill-opacity="1"></path><path clip-path="url(#clip040)" d="M828.472 49.3643 Q828.472 41.2625 825.11 36.8065 Q821.788 32.3505 815.752 32.3505 Q809.757 32.3505 806.395 36.8065 Q803.073 41.2625 803.073 49.3643 Q803.073 57.4256 806.395 61.8816 Q809.757 66.3376 815.752 66.3376 Q821.788 66.3376 825.11 61.8816 Q828.472 57.4256 828.472 49.3643 M835.926 66.9452 Q835.926 78.5308 830.781 84.1616 Q825.636 89.8329 815.023 89.8329 Q811.094 89.8329 807.61 89.2252 Q804.126 88.6581 800.845 87.4428 L800.845 80.1917 Q804.126 81.9741 807.326 82.8248 Q810.527 83.6755 813.848 83.6755 Q821.18 83.6755 824.826 79.8271 Q828.472 76.0193 828.472 68.282 L828.472 64.5957 Q826.163 68.6061 822.558 70.5911 Q818.952 72.576 813.929 72.576 Q805.584 72.576 800.48 66.2161 Q795.376 59.8562 795.376 49.3643 Q795.376 38.832 800.48 32.472 Q805.584 26.1121 813.929 26.1121 Q818.952 26.1121 822.558 28.0971 Q826.163 30.082 828.472 34.0924 L828.472 27.2059 L835.926 27.2059 L835.926 66.9452 Z" fill="#000000" fill-rule="nonzero" fill-opacity="1"></path><path clip-path="url(#clip040)" d="M871.898 49.7694 Q862.864 49.7694 859.381 51.8354 Q855.897 53.9013 855.897 58.8839 Q855.897 62.8538 858.489 65.2034 Q861.122 67.5124 865.619 67.5124 Q871.817 67.5124 875.544 63.1374 Q879.311 58.7219 879.311 51.4303 L879.311 49.7694 L871.898 49.7694 M886.765 46.6907 L886.765 72.576 L879.311 72.576 L879.311 65.6895 Q876.759 69.8214 872.951 71.8063 Q869.143 73.7508 863.634 73.7508 Q856.666 73.7508 852.534 69.8619 Q848.443 65.9325 848.443 59.3701 Q848.443 51.7138 853.547 47.825 Q858.692 43.9361 868.86 43.9361 L879.311 43.9361 L879.311 43.2069 Q879.311 38.0623 875.908 35.2672 Q872.546 32.4315 866.429 32.4315 Q862.54 32.4315 858.854 33.3632 Q855.168 34.295 851.765 36.1584 L851.765 29.2718 Q855.856 27.692 859.705 26.9223 Q863.553 26.1121 867.199 26.1121 Q877.042 26.1121 881.904 31.2163 Q886.765 36.3204 886.765 46.6907 Z" fill="#000000" fill-rule="nonzero" fill-opacity="1"></path><path clip-path="url(#clip040)" d="M928.408 34.1734 Q927.152 33.4443 925.653 33.1202 Q924.195 32.7556 922.413 32.7556 Q916.093 32.7556 912.69 36.8875 Q909.328 40.9789 909.328 48.6757 L909.328 72.576 L901.834 72.576 L901.834 27.2059 L909.328 27.2059 L909.328 34.2544 Q911.678 30.1225 915.445 28.1376 Q919.212 26.1121 924.6 26.1121 Q925.37 26.1121 926.301 26.2337 Q927.233 26.3147 928.367 26.5172 L928.408 34.1734 Z" fill="#000000" fill-rule="nonzero" fill-opacity="1"></path><path clip-path="url(#clip040)" d="M936.226 27.2059 L943.68 27.2059 L943.68 72.576 L936.226 72.576 L936.226 27.2059 M936.226 9.54393 L943.68 9.54393 L943.68 18.9825 L936.226 18.9825 L936.226 9.54393 Z" fill="#000000" fill-rule="nonzero" fill-opacity="1"></path><path clip-path="url(#clip040)" d="M966.648 14.324 L966.648 27.2059 L982.001 27.2059 L982.001 32.9987 L966.648 32.9987 L966.648 57.6282 Q966.648 63.1779 968.147 64.7578 Q969.687 66.3376 974.345 66.3376 L982.001 66.3376 L982.001 72.576 L974.345 72.576 Q965.717 72.576 962.436 69.3758 Q959.154 66.1351 959.154 57.6282 L959.154 32.9987 L953.686 32.9987 L953.686 27.2059 L959.154 27.2059 L959.154 14.324 L966.648 14.324 Z" fill="#000000" fill-rule="nonzero" fill-opacity="1"></path><path clip-path="url(#clip040)" d="M1029.52 45.1919 L1029.52 72.576 L1022.06 72.576 L1022.06 45.4349 Q1022.06 38.994 1019.55 35.7938 Q1017.04 32.5936 1012.02 32.5936 Q1005.98 32.5936 1002.5 36.4419 Q999.015 40.2903 999.015 46.9338 L999.015 72.576 L991.521 72.576 L991.521 9.54393 L999.015 9.54393 L999.015 34.2544 Q1001.69 30.163 1005.29 28.1376 Q1008.94 26.1121 1013.68 26.1121 Q1021.5 26.1121 1025.51 30.9732 Q1029.52 35.7938 1029.52 45.1919 Z" fill="#000000" fill-rule="nonzero" fill-opacity="1"></path><path clip-path="url(#clip040)" d="M1079.71 35.9153 Q1082.5 30.8922 1086.39 28.5022 Q1090.28 26.1121 1095.55 26.1121 Q1102.64 26.1121 1106.49 31.0947 Q1110.33 36.0368 1110.33 45.1919 L1110.33 72.576 L1102.84 72.576 L1102.84 45.4349 Q1102.84 38.913 1100.53 35.7533 Q1098.22 32.5936 1093.48 32.5936 Q1087.69 32.5936 1084.33 36.4419 Q1080.96 40.2903 1080.96 46.9338 L1080.96 72.576 L1073.47 72.576 L1073.47 45.4349 Q1073.47 38.8725 1071.16 35.7533 Q1068.85 32.5936 1064.03 32.5936 Q1058.32 32.5936 1054.96 36.4824 Q1051.6 40.3308 1051.6 46.9338 L1051.6 72.576 L1044.1 72.576 L1044.1 27.2059 L1051.6 27.2059 L1051.6 34.2544 Q1054.15 30.082 1057.71 28.0971 Q1061.28 26.1121 1066.18 26.1121 Q1071.12 26.1121 1074.56 28.6237 Q1078.05 31.1352 1079.71 35.9153 Z" fill="#000000" fill-rule="nonzero" fill-opacity="1"></path><path clip-path="url(#clip040)" d="M1125.2 27.2059 L1132.65 27.2059 L1132.65 72.576 L1125.2 72.576 L1125.2 27.2059 M1125.2 9.54393 L1132.65 9.54393 L1132.65 18.9825 L1125.2 18.9825 L1125.2 9.54393 Z" fill="#000000" fill-rule="nonzero" fill-opacity="1"></path><path clip-path="url(#clip040)" d="M1180.9 28.9478 L1180.9 35.9153 Q1177.74 34.1734 1174.54 33.3227 Q1171.38 32.4315 1168.14 32.4315 Q1160.89 32.4315 1156.88 37.0496 Q1152.87 41.6271 1152.87 49.9314 Q1152.87 58.2358 1156.88 62.8538 Q1160.89 67.4314 1168.14 67.4314 Q1171.38 67.4314 1174.54 66.5807 Q1177.74 65.6895 1180.9 63.9476 L1180.9 70.8341 Q1177.78 72.2924 1174.42 73.0216 Q1171.1 73.7508 1167.33 73.7508 Q1157.08 73.7508 1151.05 67.3098 Q1145.01 60.8689 1145.01 49.9314 Q1145.01 38.832 1151.09 32.472 Q1157.2 26.1121 1167.82 26.1121 Q1171.26 26.1121 1174.54 26.8413 Q1177.82 27.5299 1180.9 28.9478 Z" fill="#000000" fill-rule="nonzero" fill-opacity="1"></path><path clip-path="url(#clip040)" d="M1250.09 34.0924 L1250.09 9.54393 L1257.54 9.54393 L1257.54 72.576 L1250.09 72.576 L1250.09 65.7705 Q1247.74 69.8214 1244.14 71.8063 Q1240.57 73.7508 1235.55 73.7508 Q1227.32 73.7508 1222.14 67.1883 Q1216.99 60.6258 1216.99 49.9314 Q1216.99 39.2371 1222.14 32.6746 Q1227.32 26.1121 1235.55 26.1121 Q1240.57 26.1121 1244.14 28.0971 Q1247.74 30.0415 1250.09 34.0924 M1224.69 49.9314 Q1224.69 58.1548 1228.05 62.8538 Q1231.46 67.5124 1237.37 67.5124 Q1243.28 67.5124 1246.69 62.8538 Q1250.09 58.1548 1250.09 49.9314 Q1250.09 41.7081 1246.69 37.0496 Q1243.28 32.3505 1237.37 32.3505 Q1231.46 32.3505 1228.05 37.0496 Q1224.69 41.7081 1224.69 49.9314 Z" fill="#000000" fill-rule="nonzero" fill-opacity="1"></path><path clip-path="url(#clip040)" d="M1311.7 48.0275 L1311.7 51.6733 L1277.43 51.6733 Q1277.92 59.3701 1282.05 63.421 Q1286.22 67.4314 1293.64 67.4314 Q1297.93 67.4314 1301.94 66.3781 Q1305.99 65.3249 1309.96 63.2184 L1309.96 70.267 Q1305.95 71.9684 1301.74 72.8596 Q1297.53 73.7508 1293.19 73.7508 Q1282.34 73.7508 1275.98 67.4314 Q1269.66 61.1119 1269.66 50.3365 Q1269.66 39.1965 1275.65 32.6746 Q1281.69 26.1121 1291.9 26.1121 Q1301.05 26.1121 1306.36 32.0264 Q1311.7 37.9003 1311.7 48.0275 M1304.25 45.84 Q1304.17 39.7232 1300.81 36.0774 Q1297.49 32.4315 1291.98 32.4315 Q1285.74 32.4315 1281.97 35.9558 Q1278.24 39.4801 1277.68 45.8805 L1304.25 45.84 Z" fill="#000000" fill-rule="nonzero" fill-opacity="1"></path><path clip-path="url(#clip040)" d="M1318.59 27.2059 L1326.49 27.2059 L1340.67 65.2844 L1354.85 27.2059 L1362.75 27.2059 L1345.73 72.576 L1335.6 72.576 L1318.59 27.2059 Z" fill="#000000" fill-rule="nonzero" fill-opacity="1"></path><path clip-path="url(#clip040)" d="M1373.04 27.2059 L1380.49 27.2059 L1380.49 72.576 L1373.04 72.576 L1373.04 27.2059 M1373.04 9.54393 L1380.49 9.54393 L1380.49 18.9825 L1373.04 18.9825 L1373.04 9.54393 Z" fill="#000000" fill-rule="nonzero" fill-opacity="1"></path><path clip-path="url(#clip040)" d="M1416.7 49.7694 Q1407.67 49.7694 1404.19 51.8354 Q1400.7 53.9013 1400.7 58.8839 Q1400.7 62.8538 1403.3 65.2034 Q1405.93 67.5124 1410.43 67.5124 Q1416.62 67.5124 1420.35 63.1374 Q1424.12 58.7219 1424.12 51.4303 L1424.12 49.7694 L1416.7 49.7694 M1431.57 46.6907 L1431.57 72.576 L1424.12 72.576 L1424.12 65.6895 Q1421.56 69.8214 1417.76 71.8063 Q1413.95 73.7508 1408.44 73.7508 Q1401.47 73.7508 1397.34 69.8619 Q1393.25 65.9325 1393.25 59.3701 Q1393.25 51.7138 1398.35 47.825 Q1403.5 43.9361 1413.67 43.9361 L1424.12 43.9361 L1424.12 43.2069 Q1424.12 38.0623 1420.71 35.2672 Q1417.35 32.4315 1411.24 32.4315 Q1407.35 32.4315 1403.66 33.3632 Q1399.97 34.295 1396.57 36.1584 L1396.57 29.2718 Q1400.66 27.692 1404.51 26.9223 Q1408.36 26.1121 1412 26.1121 Q1421.85 26.1121 1426.71 31.2163 Q1431.57 36.3204 1431.57 46.6907 Z" fill="#000000" fill-rule="nonzero" fill-opacity="1"></path><path clip-path="url(#clip040)" d="M1454.3 14.324 L1454.3 27.2059 L1469.65 27.2059 L1469.65 32.9987 L1454.3 32.9987 L1454.3 57.6282 Q1454.3 63.1779 1455.8 64.7578 Q1457.33 66.3376 1461.99 66.3376 L1469.65 66.3376 L1469.65 72.576 L1461.99 72.576 Q1453.36 72.576 1450.08 69.3758 Q1446.8 66.1351 1446.8 57.6282 L1446.8 32.9987 L1441.33 32.9987 L1441.33 27.2059 L1446.8 27.2059 L1446.8 14.324 L1454.3 14.324 Z" fill="#000000" fill-rule="nonzero" fill-opacity="1"></path><path clip-path="url(#clip040)" d="M1479.45 27.2059 L1486.91 27.2059 L1486.91 72.576 L1479.45 72.576 L1479.45 27.2059 M1479.45 9.54393 L1486.91 9.54393 L1486.91 18.9825 L1479.45 18.9825 L1479.45 9.54393 Z" fill="#000000" fill-rule="nonzero" fill-opacity="1"></path><path clip-path="url(#clip040)" d="M1520.08 32.4315 Q1514.09 32.4315 1510.6 37.1306 Q1507.12 41.7891 1507.12 49.9314 Q1507.12 58.0738 1510.56 62.7728 Q1514.05 67.4314 1520.08 67.4314 Q1526.04 67.4314 1529.52 62.7323 Q1533.01 58.0333 1533.01 49.9314 Q1533.01 41.8701 1529.52 37.1711 Q1526.04 32.4315 1520.08 32.4315 M1520.08 26.1121 Q1529.81 26.1121 1535.35 32.4315 Q1540.9 38.7509 1540.9 49.9314 Q1540.9 61.0714 1535.35 67.4314 Q1529.81 73.7508 1520.08 73.7508 Q1510.32 73.7508 1504.77 67.4314 Q1499.26 61.0714 1499.26 49.9314 Q1499.26 38.7509 1504.77 32.4315 Q1510.32 26.1121 1520.08 26.1121 Z" fill="#000000" fill-rule="nonzero" fill-opacity="1"></path><path clip-path="url(#clip040)" d="M1590.97 45.1919 L1590.97 72.576 L1583.52 72.576 L1583.52 45.4349 Q1583.52 38.994 1581.01 35.7938 Q1578.5 32.5936 1573.47 32.5936 Q1567.44 32.5936 1563.95 36.4419 Q1560.47 40.2903 1560.47 46.9338 L1560.47 72.576 L1552.98 72.576 L1552.98 27.2059 L1560.47 27.2059 L1560.47 34.2544 Q1563.14 30.163 1566.75 28.1376 Q1570.4 26.1121 1575.13 26.1121 Q1582.95 26.1121 1586.96 30.9732 Q1590.97 35.7938 1590.97 45.1919 Z" fill="#000000" fill-rule="nonzero" fill-opacity="1"></path><path clip-path="url(#clip040)" d="M1655.18 9.54393 L1655.18 15.7418 L1648.05 15.7418 Q1644.04 15.7418 1642.46 17.3622 Q1640.92 18.9825 1640.92 23.1955 L1640.92 27.2059 L1653.2 27.2059 L1653.2 32.9987 L1640.92 32.9987 L1640.92 72.576 L1633.43 72.576 L1633.43 32.9987 L1626.3 32.9987 L1626.3 27.2059 L1633.43 27.2059 L1633.43 24.0462 Q1633.43 16.471 1636.95 13.0277 Q1640.48 9.54393 1648.13 9.54393 L1655.18 9.54393 Z" fill="#000000" fill-rule="nonzero" fill-opacity="1"></path><path clip-path="url(#clip040)" d="M1687.71 34.1734 Q1686.45 33.4443 1684.95 33.1202 Q1683.5 32.7556 1681.71 32.7556 Q1675.39 32.7556 1671.99 36.8875 Q1668.63 40.9789 1668.63 48.6757 L1668.63 72.576 L1661.14 72.576 L1661.14 27.2059 L1668.63 27.2059 L1668.63 34.2544 Q1670.98 30.1225 1674.75 28.1376 Q1678.51 26.1121 1683.9 26.1121 Q1684.67 26.1121 1685.6 26.2337 Q1686.53 26.3147 1687.67 26.5172 L1687.71 34.1734 Z" fill="#000000" fill-rule="nonzero" fill-opacity="1"></path><path clip-path="url(#clip040)" d="M1711.29 32.4315 Q1705.29 32.4315 1701.81 37.1306 Q1698.32 41.7891 1698.32 49.9314 Q1698.32 58.0738 1701.77 62.7728 Q1705.25 67.4314 1711.29 67.4314 Q1717.24 67.4314 1720.72 62.7323 Q1724.21 58.0333 1724.21 49.9314 Q1724.21 41.8701 1720.72 37.1711 Q1717.24 32.4315 1711.29 32.4315 M1711.29 26.1121 Q1721.01 26.1121 1726.56 32.4315 Q1732.11 38.7509 1732.11 49.9314 Q1732.11 61.0714 1726.56 67.4314 Q1721.01 73.7508 1711.29 73.7508 Q1701.52 73.7508 1695.97 67.4314 Q1690.46 61.0714 1690.46 49.9314 Q1690.46 38.7509 1695.97 32.4315 Q1701.52 26.1121 1711.29 26.1121 Z" fill="#000000" fill-rule="nonzero" fill-opacity="1"></path><path clip-path="url(#clip040)" d="M1779.79 35.9153 Q1782.58 30.8922 1786.47 28.5022 Q1790.36 26.1121 1795.63 26.1121 Q1802.71 26.1121 1806.56 31.0947 Q1810.41 36.0368 1810.41 45.1919 L1810.41 72.576 L1802.92 72.576 L1802.92 45.4349 Q1802.92 38.913 1800.61 35.7533 Q1798.3 32.5936 1793.56 32.5936 Q1787.77 32.5936 1784.4 36.4419 Q1781.04 40.2903 1781.04 46.9338 L1781.04 72.576 L1773.55 72.576 L1773.55 45.4349 Q1773.55 38.8725 1771.24 35.7533 Q1768.93 32.5936 1764.11 32.5936 Q1758.4 32.5936 1755.04 36.4824 Q1751.67 40.3308 1751.67 46.9338 L1751.67 72.576 L1744.18 72.576 L1744.18 27.2059 L1751.67 27.2059 L1751.67 34.2544 Q1754.23 30.082 1757.79 28.0971 Q1761.35 26.1121 1766.26 26.1121 Q1771.2 26.1121 1774.64 28.6237 Q1778.13 31.1352 1779.79 35.9153 Z" fill="#000000" fill-rule="nonzero" fill-opacity="1"></path><path clip-path="url(#clip040)" d="M1846.83 27.2059 L1890.3 27.2059 L1890.3 34.6595 L1884.58 34.6595 L1884.58 62.5298 Q1884.58 65.4464 1885.56 66.7427 Q1886.57 67.9985 1888.8 67.9985 Q1889.4 67.9985 1890.3 67.9175 Q1891.19 67.7959 1891.47 67.7554 L1891.47 73.1431 Q1890.05 73.6697 1888.55 73.9128 Q1887.05 74.1559 1885.56 74.1559 Q1880.69 74.1559 1878.83 71.5228 Q1876.97 68.8492 1876.97 61.7196 L1876.97 34.6595 L1860.24 34.6595 L1860.24 72.576 L1852.62 72.576 L1852.62 34.6595 L1846.83 34.6595 L1846.83 27.2059 Z" fill="#000000" fill-rule="nonzero" fill-opacity="1"></path><polyline clip-path="url(#clip042)" style="stroke:#009af9; stroke-linecap:round; stroke-linejoin:round; stroke-width:4; stroke-opacity:1; fill:none" points="301.869,160.256 388.441,246.566 475.013,333.975 561.585,421.659 648.157,509.412 734.728,597.181 821.3,684.956 907.872,772.731 994.444,860.506 1081.02,948.281 1167.59,1036.07 1254.16,1123.8 1340.73,1208.79 1427.3,1386.4 1513.87,1265.12 1600.45,1156.16 1687.02,1047.44 1773.59,937.033 1860.16,875.322 1946.73,875.322 2033.31,682.778 2119.88,615.269 2206.45,533.771 2293.02,533.771 "></polyline>
<line clip-path="url(#clip042)" x1="301.869" y1="160.256" x2="285.869" y2="144.256" style="stroke:#009af9; stroke-width:4; stroke-opacity:1"></line>
<line clip-path="url(#clip042)" x1="301.869" y1="160.256" x2="285.869" y2="176.256" style="stroke:#009af9; stroke-width:4; stroke-opacity:1"></line>
<line clip-path="url(#clip042)" x1="301.869" y1="160.256" x2="317.869" y2="176.256" style="stroke:#009af9; stroke-width:4; stroke-opacity:1"></line>
<line clip-path="url(#clip042)" x1="301.869" y1="160.256" x2="317.869" y2="144.256" style="stroke:#009af9; stroke-width:4; stroke-opacity:1"></line>
<line clip-path="url(#clip042)" x1="388.441" y1="246.566" x2="372.441" y2="230.566" style="stroke:#009af9; stroke-width:4; stroke-opacity:1"></line>
<line clip-path="url(#clip042)" x1="388.441" y1="246.566" x2="372.441" y2="262.566" style="stroke:#009af9; stroke-width:4; stroke-opacity:1"></line>
<line clip-path="url(#clip042)" x1="388.441" y1="246.566" x2="404.441" y2="262.566" style="stroke:#009af9; stroke-width:4; stroke-opacity:1"></line>
<line clip-path="url(#clip042)" x1="388.441" y1="246.566" x2="404.441" y2="230.566" style="stroke:#009af9; stroke-width:4; stroke-opacity:1"></line>
<line clip-path="url(#clip042)" x1="475.013" y1="333.975" x2="459.013" y2="317.975" style="stroke:#009af9; stroke-width:4; stroke-opacity:1"></line>
<line clip-path="url(#clip042)" x1="475.013" y1="333.975" x2="459.013" y2="349.975" style="stroke:#009af9; stroke-width:4; stroke-opacity:1"></line>
<line clip-path="url(#clip042)" x1="475.013" y1="333.975" x2="491.013" y2="349.975" style="stroke:#009af9; stroke-width:4; stroke-opacity:1"></line>
<line clip-path="url(#clip042)" x1="475.013" y1="333.975" x2="491.013" y2="317.975" style="stroke:#009af9; stroke-width:4; stroke-opacity:1"></line>
<line clip-path="url(#clip042)" x1="561.585" y1="421.659" x2="545.585" y2="405.659" style="stroke:#009af9; stroke-width:4; stroke-opacity:1"></line>
<line clip-path="url(#clip042)" x1="561.585" y1="421.659" x2="545.585" y2="437.659" style="stroke:#009af9; stroke-width:4; stroke-opacity:1"></line>
<line clip-path="url(#clip042)" x1="561.585" y1="421.659" x2="577.585" y2="437.659" style="stroke:#009af9; stroke-width:4; stroke-opacity:1"></line>
<line clip-path="url(#clip042)" x1="561.585" y1="421.659" x2="577.585" y2="405.659" style="stroke:#009af9; stroke-width:4; stroke-opacity:1"></line>
<line clip-path="url(#clip042)" x1="648.157" y1="509.412" x2="632.157" y2="493.412" style="stroke:#009af9; stroke-width:4; stroke-opacity:1"></line>
<line clip-path="url(#clip042)" x1="648.157" y1="509.412" x2="632.157" y2="525.412" style="stroke:#009af9; stroke-width:4; stroke-opacity:1"></line>
<line clip-path="url(#clip042)" x1="648.157" y1="509.412" x2="664.157" y2="525.412" style="stroke:#009af9; stroke-width:4; stroke-opacity:1"></line>
<line clip-path="url(#clip042)" x1="648.157" y1="509.412" x2="664.157" y2="493.412" style="stroke:#009af9; stroke-width:4; stroke-opacity:1"></line>
<line clip-path="url(#clip042)" x1="734.728" y1="597.181" x2="718.728" y2="581.181" style="stroke:#009af9; stroke-width:4; stroke-opacity:1"></line>
<line clip-path="url(#clip042)" x1="734.728" y1="597.181" x2="718.728" y2="613.181" style="stroke:#009af9; stroke-width:4; stroke-opacity:1"></line>
<line clip-path="url(#clip042)" x1="734.728" y1="597.181" x2="750.728" y2="613.181" style="stroke:#009af9; stroke-width:4; stroke-opacity:1"></line>
<line clip-path="url(#clip042)" x1="734.728" y1="597.181" x2="750.728" y2="581.181" style="stroke:#009af9; stroke-width:4; stroke-opacity:1"></line>
<line clip-path="url(#clip042)" x1="821.3" y1="684.956" x2="805.3" y2="668.956" style="stroke:#009af9; stroke-width:4; stroke-opacity:1"></line>
<line clip-path="url(#clip042)" x1="821.3" y1="684.956" x2="805.3" y2="700.956" style="stroke:#009af9; stroke-width:4; stroke-opacity:1"></line>
<line clip-path="url(#clip042)" x1="821.3" y1="684.956" x2="837.3" y2="700.956" style="stroke:#009af9; stroke-width:4; stroke-opacity:1"></line>
<line clip-path="url(#clip042)" x1="821.3" y1="684.956" x2="837.3" y2="668.956" style="stroke:#009af9; stroke-width:4; stroke-opacity:1"></line>
<line clip-path="url(#clip042)" x1="907.872" y1="772.731" x2="891.872" y2="756.731" style="stroke:#009af9; stroke-width:4; stroke-opacity:1"></line>
<line clip-path="url(#clip042)" x1="907.872" y1="772.731" x2="891.872" y2="788.731" style="stroke:#009af9; stroke-width:4; stroke-opacity:1"></line>
<line clip-path="url(#clip042)" x1="907.872" y1="772.731" x2="923.872" y2="788.731" style="stroke:#009af9; stroke-width:4; stroke-opacity:1"></line>
<line clip-path="url(#clip042)" x1="907.872" y1="772.731" x2="923.872" y2="756.731" style="stroke:#009af9; stroke-width:4; stroke-opacity:1"></line>
<line clip-path="url(#clip042)" x1="994.444" y1="860.506" x2="978.444" y2="844.506" style="stroke:#009af9; stroke-width:4; stroke-opacity:1"></line>
<line clip-path="url(#clip042)" x1="994.444" y1="860.506" x2="978.444" y2="876.506" style="stroke:#009af9; stroke-width:4; stroke-opacity:1"></line>
<line clip-path="url(#clip042)" x1="994.444" y1="860.506" x2="1010.44" y2="876.506" style="stroke:#009af9; stroke-width:4; stroke-opacity:1"></line>
<line clip-path="url(#clip042)" x1="994.444" y1="860.506" x2="1010.44" y2="844.506" style="stroke:#009af9; stroke-width:4; stroke-opacity:1"></line>
<line clip-path="url(#clip042)" x1="1081.02" y1="948.281" x2="1065.02" y2="932.281" style="stroke:#009af9; stroke-width:4; stroke-opacity:1"></line>
<line clip-path="url(#clip042)" x1="1081.02" y1="948.281" x2="1065.02" y2="964.281" style="stroke:#009af9; stroke-width:4; stroke-opacity:1"></line>
<line clip-path="url(#clip042)" x1="1081.02" y1="948.281" x2="1097.02" y2="964.281" style="stroke:#009af9; stroke-width:4; stroke-opacity:1"></line>
<line clip-path="url(#clip042)" x1="1081.02" y1="948.281" x2="1097.02" y2="932.281" style="stroke:#009af9; stroke-width:4; stroke-opacity:1"></line>
<line clip-path="url(#clip042)" x1="1167.59" y1="1036.07" x2="1151.59" y2="1020.07" style="stroke:#009af9; stroke-width:4; stroke-opacity:1"></line>
<line clip-path="url(#clip042)" x1="1167.59" y1="1036.07" x2="1151.59" y2="1052.07" style="stroke:#009af9; stroke-width:4; stroke-opacity:1"></line>
<line clip-path="url(#clip042)" x1="1167.59" y1="1036.07" x2="1183.59" y2="1052.07" style="stroke:#009af9; stroke-width:4; stroke-opacity:1"></line>
<line clip-path="url(#clip042)" x1="1167.59" y1="1036.07" x2="1183.59" y2="1020.07" style="stroke:#009af9; stroke-width:4; stroke-opacity:1"></line>
<line clip-path="url(#clip042)" x1="1254.16" y1="1123.8" x2="1238.16" y2="1107.8" style="stroke:#009af9; stroke-width:4; stroke-opacity:1"></line>
<line clip-path="url(#clip042)" x1="1254.16" y1="1123.8" x2="1238.16" y2="1139.8" style="stroke:#009af9; stroke-width:4; stroke-opacity:1"></line>
<line clip-path="url(#clip042)" x1="1254.16" y1="1123.8" x2="1270.16" y2="1139.8" style="stroke:#009af9; stroke-width:4; stroke-opacity:1"></line>
<line clip-path="url(#clip042)" x1="1254.16" y1="1123.8" x2="1270.16" y2="1107.8" style="stroke:#009af9; stroke-width:4; stroke-opacity:1"></line>
<line clip-path="url(#clip042)" x1="1340.73" y1="1208.79" x2="1324.73" y2="1192.79" style="stroke:#009af9; stroke-width:4; stroke-opacity:1"></line>
<line clip-path="url(#clip042)" x1="1340.73" y1="1208.79" x2="1324.73" y2="1224.79" style="stroke:#009af9; stroke-width:4; stroke-opacity:1"></line>
<line clip-path="url(#clip042)" x1="1340.73" y1="1208.79" x2="1356.73" y2="1224.79" style="stroke:#009af9; stroke-width:4; stroke-opacity:1"></line>
<line clip-path="url(#clip042)" x1="1340.73" y1="1208.79" x2="1356.73" y2="1192.79" style="stroke:#009af9; stroke-width:4; stroke-opacity:1"></line>
<line clip-path="url(#clip042)" x1="1427.3" y1="1386.4" x2="1411.3" y2="1370.4" style="stroke:#009af9; stroke-width:4; stroke-opacity:1"></line>
<line clip-path="url(#clip042)" x1="1427.3" y1="1386.4" x2="1411.3" y2="1402.4" style="stroke:#009af9; stroke-width:4; stroke-opacity:1"></line>
<line clip-path="url(#clip042)" x1="1427.3" y1="1386.4" x2="1443.3" y2="1402.4" style="stroke:#009af9; stroke-width:4; stroke-opacity:1"></line>
<line clip-path="url(#clip042)" x1="1427.3" y1="1386.4" x2="1443.3" y2="1370.4" style="stroke:#009af9; stroke-width:4; stroke-opacity:1"></line>
<line clip-path="url(#clip042)" x1="1513.87" y1="1265.12" x2="1497.87" y2="1249.12" style="stroke:#009af9; stroke-width:4; stroke-opacity:1"></line>
<line clip-path="url(#clip042)" x1="1513.87" y1="1265.12" x2="1497.87" y2="1281.12" style="stroke:#009af9; stroke-width:4; stroke-opacity:1"></line>
<line clip-path="url(#clip042)" x1="1513.87" y1="1265.12" x2="1529.87" y2="1281.12" style="stroke:#009af9; stroke-width:4; stroke-opacity:1"></line>
<line clip-path="url(#clip042)" x1="1513.87" y1="1265.12" x2="1529.87" y2="1249.12" style="stroke:#009af9; stroke-width:4; stroke-opacity:1"></line>
<line clip-path="url(#clip042)" x1="1600.45" y1="1156.16" x2="1584.45" y2="1140.16" style="stroke:#009af9; stroke-width:4; stroke-opacity:1"></line>
<line clip-path="url(#clip042)" x1="1600.45" y1="1156.16" x2="1584.45" y2="1172.16" style="stroke:#009af9; stroke-width:4; stroke-opacity:1"></line>
<line clip-path="url(#clip042)" x1="1600.45" y1="1156.16" x2="1616.45" y2="1172.16" style="stroke:#009af9; stroke-width:4; stroke-opacity:1"></line>
<line clip-path="url(#clip042)" x1="1600.45" y1="1156.16" x2="1616.45" y2="1140.16" style="stroke:#009af9; stroke-width:4; stroke-opacity:1"></line>
<line clip-path="url(#clip042)" x1="1687.02" y1="1047.44" x2="1671.02" y2="1031.44" style="stroke:#009af9; stroke-width:4; stroke-opacity:1"></line>
<line clip-path="url(#clip042)" x1="1687.02" y1="1047.44" x2="1671.02" y2="1063.44" style="stroke:#009af9; stroke-width:4; stroke-opacity:1"></line>
<line clip-path="url(#clip042)" x1="1687.02" y1="1047.44" x2="1703.02" y2="1063.44" style="stroke:#009af9; stroke-width:4; stroke-opacity:1"></line>
<line clip-path="url(#clip042)" x1="1687.02" y1="1047.44" x2="1703.02" y2="1031.44" style="stroke:#009af9; stroke-width:4; stroke-opacity:1"></line>
<line clip-path="url(#clip042)" x1="1773.59" y1="937.033" x2="1757.59" y2="921.033" style="stroke:#009af9; stroke-width:4; stroke-opacity:1"></line>
<line clip-path="url(#clip042)" x1="1773.59" y1="937.033" x2="1757.59" y2="953.033" style="stroke:#009af9; stroke-width:4; stroke-opacity:1"></line>
<line clip-path="url(#clip042)" x1="1773.59" y1="937.033" x2="1789.59" y2="953.033" style="stroke:#009af9; stroke-width:4; stroke-opacity:1"></line>
<line clip-path="url(#clip042)" x1="1773.59" y1="937.033" x2="1789.59" y2="921.033" style="stroke:#009af9; stroke-width:4; stroke-opacity:1"></line>
<line clip-path="url(#clip042)" x1="1860.16" y1="875.322" x2="1844.16" y2="859.322" style="stroke:#009af9; stroke-width:4; stroke-opacity:1"></line>
<line clip-path="url(#clip042)" x1="1860.16" y1="875.322" x2="1844.16" y2="891.322" style="stroke:#009af9; stroke-width:4; stroke-opacity:1"></line>
<line clip-path="url(#clip042)" x1="1860.16" y1="875.322" x2="1876.16" y2="891.322" style="stroke:#009af9; stroke-width:4; stroke-opacity:1"></line>
<line clip-path="url(#clip042)" x1="1860.16" y1="875.322" x2="1876.16" y2="859.322" style="stroke:#009af9; stroke-width:4; stroke-opacity:1"></line>
<line clip-path="url(#clip042)" x1="1946.73" y1="875.322" x2="1930.73" y2="859.322" style="stroke:#009af9; stroke-width:4; stroke-opacity:1"></line>
<line clip-path="url(#clip042)" x1="1946.73" y1="875.322" x2="1930.73" y2="891.322" style="stroke:#009af9; stroke-width:4; stroke-opacity:1"></line>
<line clip-path="url(#clip042)" x1="1946.73" y1="875.322" x2="1962.73" y2="891.322" style="stroke:#009af9; stroke-width:4; stroke-opacity:1"></line>
<line clip-path="url(#clip042)" x1="1946.73" y1="875.322" x2="1962.73" y2="859.322" style="stroke:#009af9; stroke-width:4; stroke-opacity:1"></line>
<line clip-path="url(#clip042)" x1="2033.31" y1="682.778" x2="2017.31" y2="666.778" style="stroke:#009af9; stroke-width:4; stroke-opacity:1"></line>
<line clip-path="url(#clip042)" x1="2033.31" y1="682.778" x2="2017.31" y2="698.778" style="stroke:#009af9; stroke-width:4; stroke-opacity:1"></line>
<line clip-path="url(#clip042)" x1="2033.31" y1="682.778" x2="2049.31" y2="698.778" style="stroke:#009af9; stroke-width:4; stroke-opacity:1"></line>
<line clip-path="url(#clip042)" x1="2033.31" y1="682.778" x2="2049.31" y2="666.778" style="stroke:#009af9; stroke-width:4; stroke-opacity:1"></line>
<line clip-path="url(#clip042)" x1="2119.88" y1="615.269" x2="2103.88" y2="599.269" style="stroke:#009af9; stroke-width:4; stroke-opacity:1"></line>
<line clip-path="url(#clip042)" x1="2119.88" y1="615.269" x2="2103.88" y2="631.269" style="stroke:#009af9; stroke-width:4; stroke-opacity:1"></line>
<line clip-path="url(#clip042)" x1="2119.88" y1="615.269" x2="2135.88" y2="631.269" style="stroke:#009af9; stroke-width:4; stroke-opacity:1"></line>
<line clip-path="url(#clip042)" x1="2119.88" y1="615.269" x2="2135.88" y2="599.269" style="stroke:#009af9; stroke-width:4; stroke-opacity:1"></line>
<line clip-path="url(#clip042)" x1="2206.45" y1="533.771" x2="2190.45" y2="517.771" style="stroke:#009af9; stroke-width:4; stroke-opacity:1"></line>
<line clip-path="url(#clip042)" x1="2206.45" y1="533.771" x2="2190.45" y2="549.771" style="stroke:#009af9; stroke-width:4; stroke-opacity:1"></line>
<line clip-path="url(#clip042)" x1="2206.45" y1="533.771" x2="2222.45" y2="549.771" style="stroke:#009af9; stroke-width:4; stroke-opacity:1"></line>
<line clip-path="url(#clip042)" x1="2206.45" y1="533.771" x2="2222.45" y2="517.771" style="stroke:#009af9; stroke-width:4; stroke-opacity:1"></line>
<line clip-path="url(#clip042)" x1="2293.02" y1="533.771" x2="2277.02" y2="517.771" style="stroke:#009af9; stroke-width:4; stroke-opacity:1"></line>
<line clip-path="url(#clip042)" x1="2293.02" y1="533.771" x2="2277.02" y2="549.771" style="stroke:#009af9; stroke-width:4; stroke-opacity:1"></line>
<line clip-path="url(#clip042)" x1="2293.02" y1="533.771" x2="2309.02" y2="549.771" style="stroke:#009af9; stroke-width:4; stroke-opacity:1"></line>
<line clip-path="url(#clip042)" x1="2293.02" y1="533.771" x2="2309.02" y2="517.771" style="stroke:#009af9; stroke-width:4; stroke-opacity:1"></line>
<path clip-path="url(#clip040)" d="M1729.86 270.476 L2282.4 270.476 L2282.4 166.796 L1729.86 166.796  Z" fill="#ffffff" fill-rule="evenodd" fill-opacity="1"></path>
<polyline clip-path="url(#clip040)" style="stroke:#000000; stroke-linecap:round; stroke-linejoin:round; stroke-width:4; stroke-opacity:1; fill:none" points="1729.86,270.476 2282.4,270.476 2282.4,166.796 1729.86,166.796 1729.86,270.476 "></polyline>
<polyline clip-path="url(#clip040)" style="stroke:#009af9; stroke-linecap:round; stroke-linejoin:round; stroke-width:4; stroke-opacity:1; fill:none" points="1753.31,218.636 1894.02,218.636 "></polyline>
<line clip-path="url(#clip040)" x1="1823.67" y1="218.636" x2="1801.95" y2="196.922" style="stroke:#009af9; stroke-width:4.55111; stroke-opacity:1"></line>
<line clip-path="url(#clip040)" x1="1823.67" y1="218.636" x2="1801.95" y2="240.35" style="stroke:#009af9; stroke-width:4.55111; stroke-opacity:1"></line>
<line clip-path="url(#clip040)" x1="1823.67" y1="218.636" x2="1845.38" y2="240.35" style="stroke:#009af9; stroke-width:4.55111; stroke-opacity:1"></line>
<line clip-path="url(#clip040)" x1="1823.67" y1="218.636" x2="1845.38" y2="196.922" style="stroke:#009af9; stroke-width:4.55111; stroke-opacity:1"></line>
<path clip-path="url(#clip040)" d="M1933.3 205.962 L1926.96 223.161 L1939.67 223.161 L1933.3 205.962 M1930.67 201.356 L1935.97 201.356 L1949.14 235.916 L1944.28 235.916 L1941.13 227.05 L1925.55 227.05 L1922.4 235.916 L1917.47 235.916 L1930.67 201.356 Z" fill="#000000" fill-rule="nonzero" fill-opacity="1"></path><path clip-path="url(#clip040)" d="M1958.12 232.027 L1958.12 245.777 L1953.84 245.777 L1953.84 209.99 L1958.12 209.99 L1958.12 213.925 Q1959.46 211.61 1961.5 210.499 Q1963.56 209.365 1966.41 209.365 Q1971.13 209.365 1974.07 213.115 Q1977.03 216.865 1977.03 222.976 Q1977.03 229.087 1974.07 232.837 Q1971.13 236.587 1966.41 236.587 Q1963.56 236.587 1961.5 235.476 Q1959.46 234.342 1958.12 232.027 M1972.61 222.976 Q1972.61 218.277 1970.67 215.615 Q1968.74 212.93 1965.36 212.93 Q1961.98 212.93 1960.04 215.615 Q1958.12 218.277 1958.12 222.976 Q1958.12 227.675 1960.04 230.36 Q1961.98 233.022 1965.36 233.022 Q1968.74 233.022 1970.67 230.36 Q1972.61 227.675 1972.61 222.976 Z" fill="#000000" fill-rule="nonzero" fill-opacity="1"></path><path clip-path="url(#clip040)" d="M1988.21 232.027 L1988.21 245.777 L1983.93 245.777 L1983.93 209.99 L1988.21 209.99 L1988.21 213.925 Q1989.55 211.61 1991.59 210.499 Q1993.65 209.365 1996.5 209.365 Q2001.22 209.365 2004.16 213.115 Q2007.12 216.865 2007.12 222.976 Q2007.12 229.087 2004.16 232.837 Q2001.22 236.587 1996.5 236.587 Q1993.65 236.587 1991.59 235.476 Q1989.55 234.342 1988.21 232.027 M2002.7 222.976 Q2002.7 218.277 2000.76 215.615 Q1998.84 212.93 1995.46 212.93 Q1992.08 212.93 1990.13 215.615 Q1988.21 218.277 1988.21 222.976 Q1988.21 227.675 1990.13 230.36 Q1992.08 233.022 1995.46 233.022 Q1998.84 233.022 2000.76 230.36 Q2002.7 227.675 2002.7 222.976 Z" fill="#000000" fill-rule="nonzero" fill-opacity="1"></path><path clip-path="url(#clip040)" d="M2029.21 213.971 Q2028.49 213.555 2027.63 213.37 Q2026.8 213.161 2025.78 213.161 Q2022.17 213.161 2020.22 215.522 Q2018.3 217.86 2018.3 222.258 L2018.3 235.916 L2014.02 235.916 L2014.02 209.99 L2018.3 209.99 L2018.3 214.018 Q2019.65 211.657 2021.8 210.522 Q2023.95 209.365 2027.03 209.365 Q2027.47 209.365 2028 209.434 Q2028.54 209.481 2029.18 209.596 L2029.21 213.971 Z" fill="#000000" fill-rule="nonzero" fill-opacity="1"></path><path clip-path="url(#clip040)" d="M2042.68 212.976 Q2039.25 212.976 2037.26 215.661 Q2035.27 218.323 2035.27 222.976 Q2035.27 227.629 2037.24 230.314 Q2039.23 232.976 2042.68 232.976 Q2046.08 232.976 2048.07 230.291 Q2050.06 227.606 2050.06 222.976 Q2050.06 218.37 2048.07 215.684 Q2046.08 212.976 2042.68 212.976 M2042.68 209.365 Q2048.23 209.365 2051.41 212.976 Q2054.58 216.587 2054.58 222.976 Q2054.58 229.342 2051.41 232.976 Q2048.23 236.587 2042.68 236.587 Q2037.1 236.587 2033.93 232.976 Q2030.78 229.342 2030.78 222.976 Q2030.78 216.587 2033.93 212.976 Q2037.1 209.365 2042.68 209.365 Z" fill="#000000" fill-rule="nonzero" fill-opacity="1"></path><path clip-path="url(#clip040)" d="M2081.73 209.99 L2072.35 222.606 L2082.22 235.916 L2077.19 235.916 L2069.65 225.731 L2062.1 235.916 L2057.08 235.916 L2067.15 222.351 L2057.93 209.99 L2062.96 209.99 L2069.83 219.226 L2076.71 209.99 L2081.73 209.99 Z" fill="#000000" fill-rule="nonzero" fill-opacity="1"></path><path clip-path="url(#clip040)" d="M2088.23 209.99 L2092.49 209.99 L2092.49 235.916 L2088.23 235.916 L2088.23 209.99 M2088.23 199.897 L2092.49 199.897 L2092.49 205.291 L2088.23 205.291 L2088.23 199.897 Z" fill="#000000" fill-rule="nonzero" fill-opacity="1"></path><path clip-path="url(#clip040)" d="M2121.59 214.967 Q2123.19 212.096 2125.41 210.731 Q2127.63 209.365 2130.64 209.365 Q2134.69 209.365 2136.89 212.212 Q2139.09 215.036 2139.09 220.268 L2139.09 235.916 L2134.81 235.916 L2134.81 220.407 Q2134.81 216.68 2133.49 214.874 Q2132.17 213.069 2129.46 213.069 Q2126.15 213.069 2124.23 215.268 Q2122.31 217.467 2122.31 221.263 L2122.31 235.916 L2118.03 235.916 L2118.03 220.407 Q2118.03 216.657 2116.71 214.874 Q2115.39 213.069 2112.63 213.069 Q2109.37 213.069 2107.45 215.291 Q2105.53 217.49 2105.53 221.263 L2105.53 235.916 L2101.24 235.916 L2101.24 209.99 L2105.53 209.99 L2105.53 214.018 Q2106.98 211.633 2109.02 210.499 Q2111.06 209.365 2113.86 209.365 Q2116.68 209.365 2118.65 210.8 Q2120.64 212.235 2121.59 214.967 Z" fill="#000000" fill-rule="nonzero" fill-opacity="1"></path><path clip-path="url(#clip040)" d="M2159.37 222.883 Q2154.21 222.883 2152.21 224.064 Q2150.22 225.244 2150.22 228.092 Q2150.22 230.36 2151.71 231.703 Q2153.21 233.022 2155.78 233.022 Q2159.32 233.022 2161.45 230.522 Q2163.6 227.999 2163.6 223.832 L2163.6 222.883 L2159.37 222.883 M2167.86 221.124 L2167.86 235.916 L2163.6 235.916 L2163.6 231.981 Q2162.15 234.342 2159.97 235.476 Q2157.79 236.587 2154.65 236.587 Q2150.66 236.587 2148.3 234.365 Q2145.97 232.119 2145.97 228.369 Q2145.97 223.994 2148.88 221.772 Q2151.82 219.55 2157.63 219.55 L2163.6 219.55 L2163.6 219.133 Q2163.6 216.194 2161.66 214.596 Q2159.74 212.976 2156.24 212.976 Q2154.02 212.976 2151.91 213.508 Q2149.81 214.041 2147.86 215.106 L2147.86 211.17 Q2150.2 210.268 2152.4 209.828 Q2154.6 209.365 2156.68 209.365 Q2162.31 209.365 2165.09 212.282 Q2167.86 215.198 2167.86 221.124 Z" fill="#000000" fill-rule="nonzero" fill-opacity="1"></path><path clip-path="url(#clip040)" d="M2180.85 202.629 L2180.85 209.99 L2189.62 209.99 L2189.62 213.3 L2180.85 213.3 L2180.85 227.374 Q2180.85 230.545 2181.71 231.448 Q2182.59 232.351 2185.25 232.351 L2189.62 232.351 L2189.62 235.916 L2185.25 235.916 Q2180.32 235.916 2178.44 234.087 Q2176.57 232.235 2176.57 227.374 L2176.57 213.3 L2173.44 213.3 L2173.44 209.99 L2176.57 209.99 L2176.57 202.629 L2180.85 202.629 Z" fill="#000000" fill-rule="nonzero" fill-opacity="1"></path><path clip-path="url(#clip040)" d="M2195.22 209.99 L2199.48 209.99 L2199.48 235.916 L2195.22 235.916 L2195.22 209.99 M2195.22 199.897 L2199.48 199.897 L2199.48 205.291 L2195.22 205.291 L2195.22 199.897 Z" fill="#000000" fill-rule="nonzero" fill-opacity="1"></path><path clip-path="url(#clip040)" d="M2218.44 212.976 Q2215.02 212.976 2213.02 215.661 Q2211.03 218.323 2211.03 222.976 Q2211.03 227.629 2213 230.314 Q2214.99 232.976 2218.44 232.976 Q2221.84 232.976 2223.83 230.291 Q2225.83 227.606 2225.83 222.976 Q2225.83 218.37 2223.83 215.684 Q2221.84 212.976 2218.44 212.976 M2218.44 209.365 Q2224 209.365 2227.17 212.976 Q2230.34 216.587 2230.34 222.976 Q2230.34 229.342 2227.17 232.976 Q2224 236.587 2218.44 236.587 Q2212.86 236.587 2209.69 232.976 Q2206.54 229.342 2206.54 222.976 Q2206.54 216.587 2209.69 212.976 Q2212.86 209.365 2218.44 209.365 Z" fill="#000000" fill-rule="nonzero" fill-opacity="1"></path><path clip-path="url(#clip040)" d="M2258.95 220.268 L2258.95 235.916 L2254.69 235.916 L2254.69 220.407 Q2254.69 216.726 2253.26 214.897 Q2251.82 213.069 2248.95 213.069 Q2245.5 213.069 2243.51 215.268 Q2241.52 217.467 2241.52 221.263 L2241.52 235.916 L2237.24 235.916 L2237.24 209.99 L2241.52 209.99 L2241.52 214.018 Q2243.05 211.68 2245.11 210.522 Q2247.19 209.365 2249.9 209.365 Q2254.37 209.365 2256.66 212.143 Q2258.95 214.897 2258.95 220.268 Z" fill="#000000" fill-rule="nonzero" fill-opacity="1"></path></svg>